<svg width="468" height="173" viewBox="0 0 468 173" fill="none" xmlns="http://www.w3.org/2000/svg">
<path d="M209.816 37.81C199.394 37.81 192.05 29.872 192.05 19.774C191.942 8.65 198.692 0.117998 210.194 0.117998C217.268 0.117998 222.776 3.196 224.504 8.434L217.808 10.432C216.836 5.14 213.812 1.63 209.654 1.63C203.66 1.63 199.556 7.732 199.61 16.912C199.664 26.2 205.388 32.356 213.056 32.356C218.51 32.356 222.776 29.332 224.396 24.634L225.152 24.796C223.64 32.734 217.754 37.81 209.816 37.81ZM227.138 37V36.244C230.432 35.866 231.89 35.11 231.89 32.518V5.356C231.89 2.818 230.432 2.062 227.138 1.684V0.927998H243.986V1.684C240.692 2.062 239.234 2.818 239.234 5.356V32.518C239.234 35.11 240.692 35.866 243.986 36.244V37H227.138ZM262.831 0.927998C277.249 0.927998 283.081 9.028 283.081 17.776C283.081 29.926 273.469 37 263.587 37H246.361V36.244C249.655 35.866 251.113 35.11 251.113 32.518V5.356C251.113 2.818 249.655 2.062 246.361 1.684V0.927998H262.831ZM263.587 35.488C270.607 35.488 275.359 29.278 275.359 18.964C275.359 10.864 270.391 2.44 261.913 2.44H258.457V32.734C258.457 34.786 259.699 35.488 263.587 35.488ZM300.582 37.756C293.508 37.756 287.676 34.732 285.948 29.116L292.32 27.334C293.454 32.68 297.126 36.244 301.392 36.244C305.172 36.244 307.764 33.76 307.764 30.142C307.764 19.612 287.19 23.5 287.19 10.54C287.19 4.33 292.266 0.117998 300.42 0.117998C306.846 0.117998 312.678 2.98 314.46 8.38L308.142 10.162C307.008 4.924 303.552 1.63 299.61 1.63C296.046 1.63 293.616 3.898 293.616 7.192C293.616 16.912 314.676 13.51 314.676 26.794C314.676 33.598 309.114 37.756 300.582 37.756Z" fill="#182B3A"/>
<path d="M200.601 109.917C195.011 109.917 191.475 105.913 191.475 100.141C191.475 94.3947 195.219 90.2087 200.913 90.2087C204.995 90.2087 207.907 92.2367 208.947 95.3827L206.061 96.0067C205.255 94.0567 203.435 92.7307 200.939 92.7307C196.909 92.7307 194.491 95.8247 194.491 100.115C194.491 104.431 197.013 107.525 200.965 107.525C204.423 107.525 206.243 105.393 206.451 101.961H200.081V99.4127H209.103V109.553H206.321V108.981C206.321 108.435 206.347 107.889 206.347 107.577H206.295C205.541 108.695 203.305 109.917 200.601 109.917ZM218.703 109.891C214.413 109.891 211.761 107.057 211.761 102.767C211.761 98.6067 214.413 95.5127 218.599 95.5127C223.253 95.5127 225.203 99.0227 225.203 103.443H214.465C214.543 105.835 216.285 107.629 218.755 107.629C220.939 107.629 222.161 106.485 222.785 105.367L225.099 106.355C224.033 108.357 221.901 109.891 218.703 109.891ZM214.491 101.363H222.369C222.239 99.4907 220.991 97.6967 218.573 97.6967C216.259 97.6967 214.777 99.3607 214.491 101.363ZM228.312 109.553V98.5807C228.312 97.8787 228.286 96.5527 228.286 95.8767H230.938V96.4487C230.938 96.7607 230.938 97.3587 230.912 97.6967H230.938C231.796 96.4227 233.226 95.5127 235.306 95.5127C238.296 95.5127 240.272 97.3587 240.272 100.999V109.553H237.516V102.715C237.516 99.5427 236.918 97.8787 234.552 97.8787C232.134 97.8787 231.068 99.5427 231.068 102.793V109.553H228.312ZM250.212 109.891C245.922 109.891 243.27 107.057 243.27 102.767C243.27 98.6067 245.922 95.5127 250.108 95.5127C254.762 95.5127 256.712 99.0227 256.712 103.443H245.974C246.052 105.835 247.794 107.629 250.264 107.629C252.448 107.629 253.67 106.485 254.294 105.367L256.608 106.355C255.542 108.357 253.41 109.891 250.212 109.891ZM246 101.363H253.878C253.748 99.4907 252.5 97.6967 250.082 97.6967C247.768 97.6967 246.286 99.3607 246 101.363ZM262.999 109.553L257.877 95.8767H260.867L262.895 101.961C263.415 103.547 263.987 105.211 264.481 106.771H264.559C265.053 105.211 265.599 103.599 266.145 101.961L268.225 95.8767H271.111L265.911 109.553H262.999ZM277.154 109.787C274.216 109.787 272.24 108.305 272.24 105.783C272.24 103.001 274.346 102.195 277.388 101.571L279.962 101.077C281.08 100.869 281.392 100.895 281.392 100.037C281.392 98.6587 280.326 97.7747 278.48 97.7747C276.478 97.7747 275.542 98.7627 275.334 100.297L272.708 100.089C272.994 97.3847 275.282 95.6427 278.48 95.6427C282.042 95.6427 284.07 97.2027 284.07 100.765V108.955C284.07 109.189 284.096 109.423 284.096 109.553H281.574V109.033C281.574 108.747 281.574 108.565 281.6 108.383C281.6 108.305 281.6 108.201 281.626 108.123H281.548C280.586 109.163 279.208 109.787 277.154 109.787ZM277.778 107.837C280.092 107.837 281.444 106.381 281.444 104.067V103.495C281.444 103.313 281.47 103.079 281.496 102.897C281.106 103.027 280.638 103.079 280.144 103.183L278.194 103.573C276.036 103.989 275.074 104.301 275.074 105.731C275.074 107.083 276.114 107.837 277.778 107.837ZM302.623 109.917C296.955 109.917 293.393 105.809 293.393 100.089C293.393 94.3687 297.007 90.2087 302.623 90.2087C306.679 90.2087 309.617 92.2367 310.579 95.7467L307.693 96.2147C306.783 93.9267 305.093 92.7307 302.519 92.7307C298.671 92.7307 296.409 95.9807 296.409 100.063C296.409 104.301 298.853 107.447 302.701 107.447C305.197 107.447 306.939 105.991 307.745 103.807L310.683 104.249C309.669 107.707 306.809 109.917 302.623 109.917ZM319.478 109.891C315.188 109.891 312.536 107.057 312.536 102.767C312.536 98.6067 315.188 95.5127 319.374 95.5127C324.028 95.5127 325.978 99.0227 325.978 103.443H315.24C315.318 105.835 317.06 107.629 319.53 107.629C321.714 107.629 322.936 106.485 323.56 105.367L325.874 106.355C324.808 108.357 322.676 109.891 319.478 109.891ZM315.266 101.363H323.144C323.014 99.4907 321.766 97.6967 319.348 97.6967C317.034 97.6967 315.552 99.3607 315.266 101.363ZM329.087 109.553V98.5807C329.087 97.8787 329.061 96.5527 329.061 95.8767H331.713V96.4487C331.713 96.7607 331.713 97.3587 331.687 97.6967H331.713C332.571 96.4227 334.001 95.5127 336.081 95.5127C339.071 95.5127 341.047 97.3587 341.047 100.999V109.553H338.291V102.715C338.291 99.5427 337.693 97.8787 335.327 97.8787C332.909 97.8787 331.843 99.5427 331.843 102.793V109.553H329.087ZM350.523 109.553H347.065C345.895 108.903 345.609 107.733 345.609 105.419V98.0867H343.321V95.8767H345.609V92.1327H348.313V95.8767H351.121V98.0867H348.313V104.535C348.313 107.733 349.093 108.513 350.523 108.981V109.553ZM359.443 109.891C355.153 109.891 352.501 107.057 352.501 102.767C352.501 98.6067 355.153 95.5127 359.339 95.5127C363.993 95.5127 365.943 99.0227 365.943 103.443H355.205C355.283 105.835 357.025 107.629 359.495 107.629C361.679 107.629 362.901 106.485 363.525 105.367L365.839 106.355C364.773 108.357 362.641 109.891 359.443 109.891ZM355.231 101.363H363.109C362.979 99.4907 361.731 97.6967 359.313 97.6967C356.999 97.6967 355.517 99.3607 355.231 101.363ZM369.052 109.553V98.3727C369.052 97.2547 369.052 96.6827 369.026 95.8767H371.626V96.6047C371.626 96.9947 371.626 97.5667 371.6 97.9567H371.652C372.458 96.3967 373.784 95.5907 375.656 95.5907C375.942 95.5907 376.202 95.6167 376.41 95.6687L376.332 98.2947C376.046 98.2167 375.76 98.1907 375.422 98.1907C372.822 98.1907 371.73 99.6987 371.73 102.793V109.553H369.052ZM385.347 109.553V98.0867H383.137V95.8767H385.347V94.6807C385.347 91.5347 386.751 90.4167 389.559 90.4167C390.157 90.4167 390.651 90.4687 391.145 90.5467L391.015 92.8607C390.677 92.7307 390.287 92.6787 389.871 92.6787C388.493 92.6787 388.051 93.3287 388.051 94.7067V95.8767H390.989V98.0867H388.051V109.553H385.347ZM399.179 109.917C395.019 109.917 392.211 107.005 392.211 102.715C392.211 98.4507 395.045 95.4867 399.231 95.4867C403.339 95.4867 406.199 98.4507 406.199 102.715C406.199 106.979 403.339 109.917 399.179 109.917ZM399.179 107.603C401.805 107.603 403.313 105.627 403.313 102.741C403.313 99.9327 401.805 97.8007 399.205 97.8007C396.553 97.8007 395.071 99.8807 395.071 102.715C395.071 105.627 396.579 107.603 399.179 107.603ZM409.347 109.553V98.3727C409.347 97.2547 409.347 96.6827 409.321 95.8767H411.921V96.6047C411.921 96.9947 411.921 97.5667 411.895 97.9567H411.947C412.753 96.3967 414.079 95.5907 415.951 95.5907C416.237 95.5907 416.497 95.6167 416.705 95.6687L416.627 98.2947C416.341 98.2167 416.055 98.1907 415.717 98.1907C413.117 98.1907 412.025 99.6987 412.025 102.793V109.553H409.347ZM192.619 138.553V119.573H195.531V138.553H192.619ZM199.925 138.553V127.581C199.925 126.879 199.899 125.553 199.899 124.877H202.551V125.449C202.551 125.761 202.551 126.359 202.525 126.697H202.551C203.409 125.423 204.839 124.513 206.919 124.513C209.909 124.513 211.885 126.359 211.885 129.999V138.553H209.129V131.715C209.129 128.543 208.531 126.879 206.165 126.879C203.747 126.879 202.681 128.543 202.681 131.793V138.553H199.925ZM221.361 138.553H217.903C216.733 137.903 216.447 136.733 216.447 134.419V127.087H214.159V124.877H216.447V121.133H219.151V124.877H221.959V127.087H219.151V133.535C219.151 136.733 219.931 137.513 221.361 137.981V138.553ZM230.281 138.891C225.991 138.891 223.339 136.057 223.339 131.767C223.339 127.607 225.991 124.513 230.177 124.513C234.831 124.513 236.781 128.023 236.781 132.443H226.043C226.121 134.835 227.863 136.629 230.333 136.629C232.517 136.629 233.739 135.485 234.363 134.367L236.677 135.355C235.611 137.357 233.479 138.891 230.281 138.891ZM226.069 130.363H233.947C233.817 128.491 232.569 126.697 230.151 126.697C227.837 126.697 226.355 128.361 226.069 130.363ZM239.89 138.553V127.373C239.89 126.255 239.89 125.683 239.864 124.877H242.464V125.605C242.464 125.995 242.464 126.567 242.438 126.957H242.49C243.296 125.397 244.622 124.591 246.494 124.591C246.78 124.591 247.04 124.617 247.248 124.669L247.17 127.295C246.884 127.217 246.598 127.191 246.26 127.191C243.66 127.191 242.568 128.699 242.568 131.793V138.553H239.89ZM249.742 138.553V127.581C249.742 126.879 249.716 125.553 249.716 124.877H252.368V125.449C252.368 125.761 252.368 126.359 252.342 126.697H252.368C253.226 125.423 254.656 124.513 256.736 124.513C259.726 124.513 261.702 126.359 261.702 129.999V138.553H258.946V131.715C258.946 128.543 258.348 126.879 255.982 126.879C253.564 126.879 252.498 128.543 252.498 131.793V138.553H249.742ZM269.562 138.787C266.624 138.787 264.648 137.305 264.648 134.783C264.648 132.001 266.754 131.195 269.796 130.571L272.37 130.077C273.488 129.869 273.8 129.895 273.8 129.037C273.8 127.659 272.734 126.775 270.888 126.775C268.886 126.775 267.95 127.763 267.742 129.297L265.116 129.089C265.402 126.385 267.69 124.643 270.888 124.643C274.45 124.643 276.478 126.203 276.478 129.765V137.955C276.478 138.189 276.504 138.423 276.504 138.553H273.982V138.033C273.982 137.747 273.982 137.565 274.008 137.383C274.008 137.305 274.008 137.201 274.034 137.123H273.956C272.994 138.163 271.616 138.787 269.562 138.787ZM270.186 136.837C272.5 136.837 273.852 135.381 273.852 133.067V132.495C273.852 132.313 273.878 132.079 273.904 131.897C273.514 132.027 273.046 132.079 272.552 132.183L270.602 132.573C268.444 132.989 267.482 133.301 267.482 134.731C267.482 136.083 268.522 136.837 270.186 136.837ZM285.904 138.553H282.446C281.276 137.903 280.99 136.733 280.99 134.419V127.087H278.702V124.877H280.99V121.133H283.694V124.877H286.502V127.087H283.694V133.535C283.694 136.733 284.474 137.513 285.904 137.981V138.553ZM289.021 138.553V124.877H291.777V138.553H289.021ZM288.995 122.771V119.573H291.803V122.771H288.995ZM301.882 138.917C297.722 138.917 294.914 136.005 294.914 131.715C294.914 127.451 297.748 124.487 301.934 124.487C306.042 124.487 308.902 127.451 308.902 131.715C308.902 135.979 306.042 138.917 301.882 138.917ZM301.882 136.603C304.508 136.603 306.016 134.627 306.016 131.741C306.016 128.933 304.508 126.801 301.908 126.801C299.256 126.801 297.774 128.881 297.774 131.715C297.774 134.627 299.282 136.603 301.882 136.603ZM312.05 138.553V127.581C312.05 126.879 312.024 125.553 312.024 124.877H314.676V125.449C314.676 125.761 314.676 126.359 314.65 126.697H314.676C315.534 125.423 316.964 124.513 319.044 124.513C322.034 124.513 324.01 126.359 324.01 129.999V138.553H321.254V131.715C321.254 128.543 320.656 126.879 318.29 126.879C315.872 126.879 314.806 128.543 314.806 131.793V138.553H312.05ZM331.871 138.787C328.933 138.787 326.957 137.305 326.957 134.783C326.957 132.001 329.063 131.195 332.105 130.571L334.679 130.077C335.797 129.869 336.109 129.895 336.109 129.037C336.109 127.659 335.043 126.775 333.197 126.775C331.195 126.775 330.259 127.763 330.051 129.297L327.425 129.089C327.711 126.385 329.999 124.643 333.197 124.643C336.759 124.643 338.787 126.203 338.787 129.765V137.955C338.787 138.189 338.813 138.423 338.813 138.553H336.291V138.033C336.291 137.747 336.291 137.565 336.317 137.383C336.317 137.305 336.317 137.201 336.343 137.123H336.265C335.303 138.163 333.925 138.787 331.871 138.787ZM332.495 136.837C334.809 136.837 336.161 135.381 336.161 133.067V132.495C336.161 132.313 336.187 132.079 336.213 131.897C335.823 132.027 335.355 132.079 334.861 132.183L332.911 132.573C330.753 132.989 329.791 133.301 329.791 134.731C329.791 136.083 330.831 136.837 332.495 136.837ZM342.671 138.553V119.573H345.427V138.553H342.671ZM356.11 138.553V119.573H362.636C369.006 119.573 372.022 123.161 372.022 128.907C372.022 134.315 369.37 138.553 362.792 138.553H356.11ZM359.022 136.083H362.298C366.458 136.083 369.032 134.003 369.032 129.141C369.032 126.359 368.33 124.331 366.562 123.187C365.08 122.277 363.338 122.069 360.504 122.069H359.022V136.083ZM375.324 138.553V124.877H378.08V138.553H375.324ZM375.298 122.771V119.573H378.106V122.771H375.298ZM386.807 138.865C383.713 138.865 381.555 137.643 380.957 135.043L383.401 134.367C383.921 135.823 385.013 136.733 386.963 136.733C388.445 136.733 389.615 136.005 389.615 134.861C389.615 133.795 388.731 133.353 387.067 132.963L385.507 132.599C383.115 132.053 381.451 131.013 381.451 128.647C381.451 126.021 383.817 124.513 386.729 124.513C389.511 124.513 391.513 125.761 392.059 128.049L389.667 128.725C389.277 127.451 388.289 126.723 386.651 126.723C385.195 126.723 384.233 127.425 384.233 128.387C384.233 129.505 384.961 129.869 386.651 130.259L388.315 130.649C390.837 131.247 392.397 132.261 392.397 134.575C392.397 137.383 390.031 138.865 386.807 138.865ZM395.433 143.441V126.437C395.433 125.917 395.407 125.371 395.407 124.877H398.085V125.501C398.085 125.813 398.059 126.333 398.059 126.723H398.111C399.021 125.449 400.555 124.539 402.609 124.539C406.275 124.539 408.927 127.451 408.927 131.715C408.927 136.031 406.275 138.865 402.609 138.865C400.555 138.865 399.099 138.137 398.137 136.811H398.111C398.189 137.669 398.163 138.553 398.163 139.385V143.441H395.433ZM402.115 136.603C404.585 136.603 406.067 134.575 406.067 131.793C406.067 128.959 404.585 126.905 402.089 126.905C399.619 126.905 398.059 128.855 398.059 131.767C398.059 134.627 399.619 136.603 402.115 136.603ZM416.847 138.865C413.935 138.865 411.907 137.331 411.907 133.717V124.877H414.663V133.015C414.663 135.407 415.651 136.603 417.627 136.603C419.941 136.603 421.033 134.809 421.033 132.131V124.877H423.789V136.525C423.789 137.253 423.789 137.799 423.815 138.553H421.163V137.955C421.163 137.669 421.163 137.123 421.189 136.811H421.137C420.227 138.085 418.823 138.865 416.847 138.865ZM433.602 138.553H430.144C428.974 137.903 428.688 136.733 428.688 134.419V127.087H426.4V124.877H428.688V121.133H431.392V124.877H434.2V127.087H431.392V133.535C431.392 136.733 432.172 137.513 433.602 137.981V138.553ZM442.521 138.891C438.231 138.891 435.579 136.057 435.579 131.767C435.579 127.607 438.231 124.513 442.417 124.513C447.071 124.513 449.021 128.023 449.021 132.443H438.283C438.361 134.835 440.103 136.629 442.573 136.629C444.757 136.629 445.979 135.485 446.603 134.367L448.917 135.355C447.851 137.357 445.719 138.891 442.521 138.891ZM438.309 130.363H446.187C446.057 128.491 444.809 126.697 442.391 126.697C440.077 126.697 438.595 128.361 438.309 130.363ZM198.365 167.917C194.621 167.917 191.761 166.097 191.137 162.795L193.919 162.119C194.361 164.277 196.025 165.499 198.391 165.499C200.757 165.499 202.369 164.329 202.369 162.457C202.369 160.897 201.199 160.169 199.015 159.519L197.455 159.051C193.945 158.011 191.813 156.763 191.813 153.617C191.813 150.367 194.595 148.209 198.469 148.209C201.927 148.209 204.267 149.899 204.969 152.785L202.317 153.487C201.823 151.693 200.471 150.705 198.365 150.705C196.285 150.705 194.855 151.719 194.855 153.383C194.855 155.021 195.921 155.567 198.495 156.399L200.341 156.971C203.253 157.881 205.385 158.973 205.385 162.197C205.385 165.811 202.395 167.917 198.365 167.917ZM214.513 167.891C210.223 167.891 207.571 165.057 207.571 160.767C207.571 156.607 210.223 153.513 214.409 153.513C219.063 153.513 221.013 157.023 221.013 161.443H210.275C210.353 163.835 212.095 165.629 214.565 165.629C216.749 165.629 217.971 164.485 218.595 163.367L220.909 164.355C219.843 166.357 217.711 167.891 214.513 167.891ZM210.301 159.363H218.179C218.049 157.491 216.801 155.697 214.383 155.697C212.069 155.697 210.587 157.361 210.301 159.363ZM229.613 167.553H226.155C224.985 166.903 224.699 165.733 224.699 163.419V156.087H222.411V153.877H224.699V150.133H227.403V153.877H230.211V156.087H227.403V162.535C227.403 165.733 228.183 166.513 229.613 166.981V167.553ZM238.424 167.553H234.966C233.796 166.903 233.51 165.733 233.51 163.419V156.087H231.222V153.877H233.51V150.133H236.214V153.877H239.022V156.087H236.214V162.535C236.214 165.733 236.994 166.513 238.424 166.981V167.553ZM241.54 167.553V148.573H244.296V167.553H241.54ZM254.402 167.891C250.112 167.891 247.46 165.057 247.46 160.767C247.46 156.607 250.112 153.513 254.298 153.513C258.952 153.513 260.902 157.023 260.902 161.443H250.164C250.242 163.835 251.984 165.629 254.454 165.629C256.638 165.629 257.86 164.485 258.484 163.367L260.798 164.355C259.732 166.357 257.6 167.891 254.402 167.891ZM250.19 159.363H258.068C257.938 157.491 256.69 155.697 254.272 155.697C251.958 155.697 250.476 157.361 250.19 159.363ZM264.011 167.553V156.243C264.011 155.281 264.011 154.787 263.985 153.877H266.611V154.683C266.611 154.969 266.611 155.437 266.585 155.723H266.637C267.339 154.475 268.821 153.513 270.797 153.513C272.695 153.513 274.125 154.371 274.931 156.009C275.789 154.553 277.375 153.513 279.559 153.513C282.783 153.513 284.447 155.567 284.447 159.233V167.553H281.691V159.857C281.691 157.361 280.937 155.879 278.857 155.879C276.361 155.879 275.607 157.959 275.607 160.611V167.553H272.851V159.909C272.851 157.335 272.045 155.879 270.043 155.879C267.625 155.879 266.767 157.855 266.767 160.767V167.553H264.011ZM294.367 167.891C290.077 167.891 287.425 165.057 287.425 160.767C287.425 156.607 290.077 153.513 294.263 153.513C298.917 153.513 300.867 157.023 300.867 161.443H290.129C290.207 163.835 291.949 165.629 294.419 165.629C296.603 165.629 297.825 164.485 298.449 163.367L300.763 164.355C299.697 166.357 297.565 167.891 294.367 167.891ZM290.155 159.363H298.033C297.903 157.491 296.655 155.697 294.237 155.697C291.923 155.697 290.441 157.361 290.155 159.363ZM303.976 167.553V156.581C303.976 155.879 303.95 154.553 303.95 153.877H306.602V154.449C306.602 154.761 306.602 155.359 306.576 155.697H306.602C307.46 154.423 308.89 153.513 310.97 153.513C313.96 153.513 315.936 155.359 315.936 158.999V167.553H313.18V160.715C313.18 157.543 312.582 155.879 310.216 155.879C307.798 155.879 306.732 157.543 306.732 160.793V167.553H303.976ZM325.412 167.553H321.954C320.784 166.903 320.498 165.733 320.498 163.419V156.087H318.21V153.877H320.498V150.133H323.202V153.877H326.01V156.087H323.202V162.535C323.202 165.733 323.982 166.513 325.412 166.981V167.553Z" fill="#182B3A"/>
<path d="M98.5981 165.74C94.1904 164.637 90.219 163.224 90.219 163.224C90.8461 163.114 90.2735 163.187 94.3177 162.431C98.3255 161.683 99.2433 161.528 102.742 161.473C108.967 161.382 108.404 164.181 108.404 164.181C108.404 166.005 106.977 167.263 106.977 167.263C106.977 167.263 103.805 167.035 98.5981 165.74ZM44.8065 156.896C38.3177 156.705 38.5631 153.942 38.5631 153.942C38.5631 152.119 40.0899 150.997 40.0899 150.997C40.0899 150.997 43.3888 151.162 48.5871 152.365C53.0039 153.395 60.247 155.83 60.247 155.83C59.629 155.948 57.4024 156.368 52.6313 156.696C49.9685 156.869 48.9052 156.942 47.5057 156.942C46.7877 156.942 45.9698 156.942 44.8065 156.896ZM117.183 154.426C115.238 154.143 112.793 153.623 109.967 152.958C103.115 151.371 97.6802 149.602 97.6802 149.602C98.589 149.475 97.971 149.329 103.887 148.709C109.64 148.107 110.631 147.633 115.729 147.761C125.571 148.007 124.989 151.207 124.989 151.207C124.989 153.322 122.636 154.808 122.636 154.808C122.636 154.808 122.481 154.808 122.154 154.808C121.372 154.808 119.673 154.763 117.201 154.407M30.8384 138.461C24.0315 137.805 24.4314 135.106 24.4314 135.106C24.4314 132.854 26.5579 131.833 26.5579 131.833C26.5579 131.833 26.5579 131.395 34.7553 132.699C40.8624 133.674 53.0675 137.595 53.0675 137.595C52.4404 137.732 44.8156 138.589 40.0445 138.707C38.1905 138.753 37.1818 138.798 36.173 138.798C34.9098 138.798 33.6647 138.716 30.8384 138.452M117.001 134.149C105.305 130.739 104.487 130.502 104.487 130.502C104.487 130.502 116.956 128.651 124.835 128.396C132.705 128.149 134.45 128.496 136.295 129.398C138.131 130.292 139.467 131.65 138.449 133.848C137.44 136.054 136.249 136.601 135.55 136.948C135.55 136.948 135.077 137.002 134.168 137.002C131.615 137.002 125.626 136.665 117.001 134.149ZM21.2597 116.744C14.262 115.795 14.3074 112.696 14.3074 112.696C14.3074 109.587 16.8793 108.666 16.8793 108.666C16.8793 108.666 16.3067 108.228 24.7676 109.377C34.0101 110.626 50.6683 115.795 50.6683 115.795C50.0412 115.905 42.4073 116.534 37.6452 116.89C35.0824 117.072 32.3197 117.272 29.357 117.272C26.8033 117.272 24.1042 117.127 21.2506 116.744M127.57 112.814C119.01 110.708 109.413 107.262 109.413 107.262C110.44 107.061 114.538 106.259 121.209 105.538C127.861 104.8 129.57 104.654 135.232 104.627C147.8 104.554 147.173 108.903 147.173 108.903C147.455 112.513 143.02 115.057 143.02 115.057C143.02 115.057 136.213 114.929 127.561 112.814M18.2334 92.4734C10.9994 91.9263 10.4087 88.0241 10.4087 88.0241C10.4087 84.1219 14.371 82.1161 14.371 82.1161C14.371 82.1161 13.6803 81.6146 23.6589 83.0096C33.6465 84.4228 52.9857 91.1149 52.9857 91.1149C52.2405 91.2699 43.6887 92.1543 38.0724 92.6192C35.5459 92.8198 32.7378 92.9201 29.7478 92.9201C26.1126 92.9201 22.1957 92.7651 18.2243 92.4642M129.497 87.7415C121.772 85.9454 110.04 82.0796 110.04 82.0796C114.411 81.25 129.988 79.7821 131.651 79.7821C138.203 79.7821 146.928 79.2441 148.936 82.6814C150.1 84.6689 148.873 86.8936 147.428 88.2703C146.464 89.2002 145.383 89.7746 145.383 89.7746C145.028 89.8111 144.638 89.8111 144.192 89.8111C141.23 89.8111 136.177 89.2914 129.497 87.7415ZM13.435 64.1003C11.5083 60.4989 16.6884 57.3535 16.6884 57.3535C19.1604 57.4811 22.5502 57.5723 32.9831 59.8972C40.3989 61.5657 53.64 66.1061 53.64 66.1061C49.1142 66.8628 38.4268 67.6652 31.0474 67.9387C30.4021 67.9569 29.6842 67.9751 28.8936 67.9751C23.4953 67.9751 15.1617 67.3096 13.435 64.1003ZM128.716 62.0307C121.8 60.6722 111.085 57.5085 111.085 57.5085C119.346 56.2412 125.298 56.15 130.442 55.685C138.585 54.9191 143.547 56.1864 144.965 58.174C146.028 59.651 145.092 61.3651 144.083 62.4592C143.347 63.2615 142.538 63.6535 142.538 63.6535C142.22 63.6718 141.866 63.6809 141.484 63.6809C138.903 63.6809 134.768 63.225 128.706 62.0398M29.5933 44.4433C26.3944 44.106 23.4044 43.2216 22.1957 41.4893C20.3054 38.7906 24.5404 35.7363 24.5404 35.7363C26.6488 35.8548 30.0477 35.8275 39.4719 37.888C45.8153 39.2647 57.357 42.8934 57.357 42.8934C53.4855 43.5407 43.8977 44.2519 37.9724 44.4981C36.8273 44.5345 35.2369 44.6257 33.5193 44.6257C32.247 44.6257 30.902 44.5892 29.5933 44.4525M121.881 39.4835C116.547 38.59 108.068 35.9734 108.068 35.9734C111.194 35.3625 118.692 34.5328 123.272 34.4325C127.87 34.3322 133.414 34.5602 134.823 36.4292C136.386 38.5444 132.705 40.8329 132.705 40.8329C132.46 40.8602 132.178 40.8694 131.878 40.8694C129.897 40.8694 126.743 40.3132 121.881 39.4835ZM35.9912 22.6712C34.7189 20.3919 37.4726 18.2493 37.4726 18.2493C39.072 18.3405 43.6069 18.5502 48.9325 19.7081C53.7582 20.7474 62.7189 23.7562 62.7189 23.7562C59.7562 24.3579 52.1223 24.8502 47.7601 25.0782C47.024 25.1146 46.2424 25.1329 45.4427 25.1329C41.4713 25.1329 37.0454 24.5767 35.9912 22.6712ZM110.103 20.6472C106.368 19.7537 100.052 17.757 100.052 17.757C102.324 17.1461 107.741 16.3894 111.076 16.0976C114.393 15.8059 118.464 15.9517 119.464 17.8573C120.464 19.7445 118.31 21.7868 118.31 21.7868C118.083 21.8233 117.81 21.8415 117.501 21.8415C115.883 21.8415 113.175 21.3857 110.094 20.6472M53.2583 9.75197C52.395 7.91939 54.2489 5.93181 54.2489 5.93181C55.3031 5.96828 58.0749 6.49708 61.2557 7.21735C64.4365 7.9285 69.8893 9.86137 69.8893 9.86137C67.9354 10.4631 63.2914 11.1925 60.4378 11.466C59.7562 11.539 59.0292 11.5845 58.3203 11.5845C56.0756 11.5845 53.9218 11.156 53.2583 9.75197ZM99.0252 1.64667C96.4806 2.40341 89.801 4.47304 88.2288 4.92891C86.6565 5.38477 83.6757 6.28739 81.8036 6.80707C79.9496 7.32676 76.3508 8.27496 76.1963 8.32055C76.1963 8.32055 71.925 6.85266 70.7435 6.52444C69.553 6.19621 66.4177 5.23889 63.2187 4.81038C60.0289 4.39098 57.3388 4.31805 55.1032 4.58245C52.8766 4.86509 49.4596 5.43948 48.0782 6.39679C46.6877 7.34499 45.9789 8.44819 45.7517 9.89784C45.7517 9.89784 45.6426 11.0102 46.606 11.8398C47.5693 12.6513 49.4959 13.1527 51.568 13.1254C53.64 13.0889 57.048 12.9066 59.3745 12.5783C61.7101 12.241 65.9905 11.5298 67.1629 11.3019C68.3261 11.074 71.3797 10.4084 71.3797 10.4084C71.3797 10.4084 77.405 12.788 78.95 13.4354C81.6582 14.5933 86.2385 16.5444 86.9837 16.8452C87.7834 17.1735 91.146 18.5866 91.146 18.5866L71.3797 22.5071C71.3797 22.5071 62.519 19.5075 56.639 18.2311C50.7773 16.9455 44.2431 16.0611 37.6634 17.0002C31.0837 17.9484 28.4301 19.5531 27.4667 21.9601C26.4943 24.367 29.2843 26.8287 37.1091 26.9655C37.1091 26.9655 44.8611 27.2299 61.6465 24.9049L64.7273 24.4582C64.7273 24.4582 77.1869 28.953 80.404 30.2112C83.6939 31.515 96.8896 36.6754 96.8896 36.6754L67.69 41.5167C67.69 41.5167 59.1201 38.6721 50.0139 36.411C40.8987 34.1681 32.6469 33.4114 26.8942 34.1317C21.1143 34.8337 13.5985 36.1192 12.5716 40.7235C11.5356 45.346 19.851 46.4674 23.2681 46.513C26.6852 46.5494 39.7355 46.1665 47.333 45.3551C54.9305 44.5254 60.2288 43.8051 60.2288 43.8051C60.2288 43.8051 77.6777 50.0231 81.8672 51.6096C86.1022 53.2142 98.998 58.2652 98.998 58.2652L65.0817 64.5653C65.0817 64.5653 51.0318 59.5416 42.5346 57.6635C34.0373 55.7853 27.185 55.1927 20.7507 55.6029C14.3347 56.0223 5.2558 57.6635 2.80206 62.6962C2.80206 62.6962 1.01173 66.8172 6.84619 68.8231C12.6807 70.8106 30.1477 69.7986 30.6657 69.7621C31.1746 69.7257 50.4229 68.0663 55.5031 67.1819C55.603 67.1637 56.1665 67.0908 56.2574 67.0816C56.2574 67.0816 65.0817 70.3365 69.3622 71.9685C74.8149 74.0929 87.6017 79.4903 89.5283 80.2288C91.564 81.022 96.7169 83.1008 96.7169 83.1008L64.2184 89.4282C64.2184 89.4282 44.4794 82.0796 30.184 80.5023C15.8614 78.8886 0.730004 82.4899 0.0393196 88.2703C-0.642276 94.0507 7.64593 94.7983 16.4794 95.0262C25.3129 95.2541 47.1331 93.376 55.0668 91.8716L96.0171 108.228L61.074 114.464C61.074 114.464 36.9818 106.578 25.3765 106.724C13.7803 106.888 5.70111 108.903 4.93772 113.799C4.93772 113.799 4.60147 119.497 18.3424 119.114C32.0834 118.74 42.2983 118.667 52.6494 116.78L53.4764 116.634C53.4764 116.634 68.3898 121.74 76.2054 124.749C84.0029 127.757 92.9727 131.195 92.9727 131.195L62.1827 136.373C62.1827 136.373 39.8082 128.204 27.1759 130.529C27.1759 130.529 16.6793 131.277 16.0523 136.373C15.4343 141.488 36.3548 140.348 42.7072 139.665C49.0597 138.99 55.1305 138.315 55.1305 138.315L86.6202 150.104L66.9448 154.234C66.9448 154.234 51.0591 148.299 42.0165 149.575C42.0165 149.575 31.111 150.031 31.3109 155.355C31.3109 155.355 31.0747 159.002 43.1889 158.437C55.3031 157.881 59.9652 156.413 61.8646 156.45C61.8646 156.45 68.7351 159.002 71.8432 160.251C74.9513 161.482 81.9217 164.145 81.9217 164.145C81.9217 164.145 69.0804 167.454 66.0723 168.311C63.0733 169.177 56.3028 170.828 56.4118 171.247C56.5118 171.657 60.4196 170.983 61.9918 170.572C63.5822 170.162 82.7487 164.765 83.503 164.719C83.503 164.719 95.072 168.959 101.97 168.721C108.867 168.503 112.294 167.491 113.675 166.36C115.056 165.239 115.783 163.889 115.647 162.421C115.511 160.954 112.475 159.65 107.786 159.978C103.088 160.324 98.9798 160.625 88.6922 162.649L69.4258 155.155L88.6922 150.906C88.6922 150.906 96.9077 153.459 101.279 154.444C105.678 155.401 113.084 156.987 119.091 156.349C125.108 155.711 131.769 155 133.114 150.122C133.114 150.122 134.705 144.916 117.646 146.375C100.597 147.834 95.6172 148.882 95.6172 148.882L66.345 137.814L94.763 132.152C94.763 132.152 111.012 137.258 118.201 138.115C125.38 138.963 131.415 139.665 140.285 137.303C149.163 134.951 148.109 130.556 147.837 129.955C147.564 129.353 146.455 127.502 141.075 126.745C135.695 125.998 127.452 126.545 123.272 126.992C119.082 127.447 102.37 129.544 102.006 129.69C102.006 129.69 70.5163 117.427 63.7095 115.34L98.4618 109.076C98.4618 109.076 114.202 114.628 123.644 116.133C133.078 117.637 138.921 117.427 147.628 115.577C156.325 113.726 157.57 109.131 157.424 107.015C157.288 104.928 153.526 101.819 142.238 102.475C130.96 103.122 119.046 103.979 106.977 106.323L66.5631 90.267L100.252 84.2587L108.768 86.8662C125.244 92.2728 138.176 92.0722 138.176 92.0722C149.863 91.5799 156.261 89.0726 159.16 84.5687C162.068 80.0647 154.653 78.1683 154.653 78.1683C147.7 76.7551 131.86 78.068 126.807 78.5239C121.745 78.9706 107.295 81.177 107.295 81.177C103.478 79.9918 92.9454 75.2963 83.0668 71.3485C74.7877 68.0845 67.4355 65.4132 67.4355 65.4132L101.215 59.0584C101.215 59.0584 110.74 61.9577 120.909 64.1094C131.078 66.2611 139.83 66.1608 147.882 63.8176C155.952 61.4654 154.653 57.4629 154.653 57.4629C152.708 52.5942 140.057 53.5607 132.56 54.053C125.053 54.5544 108.677 56.6514 108.677 56.6514C108.677 56.6514 100.888 53.8524 96.7442 52.2569C92.6091 50.6522 70.2801 42.3555 70.2801 42.3555L98.9616 37.341C112.166 41.1429 119.718 42.8934 129.152 42.4011C138.585 41.8996 142.175 38.9 143.138 36.9489C144.101 34.9978 142.22 33.694 138.821 33.0011C135.404 32.2991 132.278 32.7002 126.389 33.0011C120.5 33.302 105.723 35.2987 105.723 35.2987C105.723 35.2987 97.8074 32.445 95.7354 31.5971C93.6724 30.7491 73.2336 23.1362 73.2336 23.1362C76.5417 22.5344 92.8454 19.1154 92.8454 19.1154C92.8454 19.1154 102.097 22.58 111.012 23.1909C119.955 23.7835 124.372 21.2763 124.372 21.2763C128.37 18.2767 126.671 16.6264 126.671 16.6264C124.826 14.028 117.828 14.6753 112.766 15.0674C107.713 15.4776 98.3164 17.1735 98.3164 17.1735C97.2622 16.5261 77.8231 8.92229 77.8231 8.92229C77.8231 8.92229 82.6942 7.65498 83.394 7.47264C84.0937 7.28117 89.9191 5.64917 91.9821 5.0292C94.0541 4.38187 95.0265 4.15393 97.5984 3.33338C100.179 2.51282 100.07 2.66781 101.788 2.11166C103.506 1.5555 103.651 1.44609 103.715 1.30021C103.778 1.14522 102.888 1.03581 102.688 1.0267C102.633 1.0267 102.542 1.01758 102.397 1.01758C101.933 1.01758 100.934 1.09963 99.0252 1.66491" fill="#182B3A"/>
</svg>
