<svg width="120" height="93" viewBox="0 0 120 93" fill="none" xmlns="http://www.w3.org/2000/svg">
<path d="M13.9455 34.57C6.61148 34.57 1.44348 28.984 1.44348 21.878C1.36748 14.05 6.11748 8.046 14.2115 8.046C19.1895 8.046 23.0655 10.212 24.2815 13.898L19.5695 15.304C18.8855 11.58 16.7575 9.11 13.8315 9.11C9.61348 9.11 6.72548 13.404 6.76348 19.864C6.80148 26.4 10.8295 30.732 16.2255 30.732C20.0635 30.732 23.0655 28.604 24.2055 25.298L24.7375 25.412C23.6735 30.998 19.5315 34.57 13.9455 34.57ZM26.1352 34V33.468C28.4532 33.202 29.4792 32.67 29.4792 30.846V11.732C29.4792 9.946 28.4532 9.414 26.1352 9.148V8.616H37.9912V9.148C35.6732 9.414 34.6472 9.946 34.6472 11.732V30.846C34.6472 32.67 35.6732 33.202 37.9912 33.468V34H26.1352ZM51.2523 8.616C61.3983 8.616 65.5023 14.316 65.5023 20.472C65.5023 29.022 58.7383 34 51.7843 34H39.6623V33.468C41.9803 33.202 43.0063 32.67 43.0063 30.846V11.732C43.0063 9.946 41.9803 9.414 39.6623 9.148V8.616H51.2523ZM51.7843 32.936C56.7243 32.936 60.0683 28.566 60.0683 21.308C60.0683 15.608 56.5723 9.68 50.6063 9.68H48.1743V30.998C48.1743 32.442 49.0483 32.936 51.7843 32.936ZM77.8178 34.532C72.8398 34.532 68.7358 32.404 67.5198 28.452L72.0038 27.198C72.8018 30.96 75.3858 33.468 78.3878 33.468C81.0478 33.468 82.8718 31.72 82.8718 29.174C82.8718 21.764 68.3938 24.5 68.3938 15.38C68.3938 11.01 71.9658 8.046 77.7038 8.046C82.2258 8.046 86.3298 10.06 87.5838 13.86L83.1378 15.114C82.3398 11.428 79.9078 9.11 77.1338 9.11C74.6258 9.11 72.9158 10.706 72.9158 13.024C72.9158 19.864 87.7358 17.47 87.7358 26.818C87.7358 31.606 83.8218 34.532 77.8178 34.532Z" fill="#182B3A"/>
<path d="M5.16048 62.4585C2.36548 62.4585 0.597481 60.4565 0.597481 57.5705C0.597481 54.6975 2.46948 52.6045 5.31648 52.6045C7.35748 52.6045 8.81348 53.6185 9.33348 55.1915L7.89048 55.5035C7.48748 54.5285 6.57748 53.8655 5.32948 53.8655C3.31448 53.8655 2.10548 55.4125 2.10548 57.5575C2.10548 59.7155 3.36648 61.2625 5.34248 61.2625C7.07148 61.2625 7.98148 60.1965 8.08548 58.4805H4.90048V57.2065H9.41148V62.2765H8.02048V61.9905C8.02048 61.7175 8.03348 61.4445 8.03348 61.2885H8.00748C7.63048 61.8475 6.51248 62.4585 5.16048 62.4585ZM14.2111 62.4455C12.0661 62.4455 10.7401 61.0285 10.7401 58.8835C10.7401 56.8035 12.0661 55.2565 14.1591 55.2565C16.4861 55.2565 17.4611 57.0115 17.4611 59.2215H12.0921C12.1311 60.4175 13.0021 61.3145 14.2371 61.3145C15.3291 61.3145 15.9401 60.7425 16.2521 60.1835L17.4091 60.6775C16.8761 61.6785 15.8101 62.4455 14.2111 62.4455ZM12.1051 58.1815H16.0441C15.9791 57.2455 15.3551 56.3485 14.1461 56.3485C12.9891 56.3485 12.2481 57.1805 12.1051 58.1815ZM19.0157 62.2765V56.7905C19.0157 56.4395 19.0027 55.7765 19.0027 55.4385H20.3287V55.7245C20.3287 55.8805 20.3287 56.1795 20.3157 56.3485H20.3287C20.7577 55.7115 21.4727 55.2565 22.5127 55.2565C24.0077 55.2565 24.9957 56.1795 24.9957 57.9995V62.2765H23.6177V58.8575C23.6177 57.2715 23.3187 56.4395 22.1357 56.4395C20.9267 56.4395 20.3937 57.2715 20.3937 58.8965V62.2765H19.0157ZM29.966 62.4455C27.821 62.4455 26.495 61.0285 26.495 58.8835C26.495 56.8035 27.821 55.2565 29.914 55.2565C32.241 55.2565 33.216 57.0115 33.216 59.2215H27.847C27.886 60.4175 28.757 61.3145 29.992 61.3145C31.084 61.3145 31.695 60.7425 32.007 60.1835L33.164 60.6775C32.631 61.6785 31.565 62.4455 29.966 62.4455ZM27.86 58.1815H31.799C31.734 57.2455 31.11 56.3485 29.901 56.3485C28.744 56.3485 28.003 57.1805 27.86 58.1815ZM36.3594 62.2765L33.7984 55.4385H35.2934L36.3074 58.4805C36.5674 59.2735 36.8534 60.1055 37.1004 60.8855H37.1394C37.3864 60.1055 37.6594 59.2995 37.9324 58.4805L38.9724 55.4385H40.4154L37.8154 62.2765H36.3594ZM43.4367 62.3935C41.9677 62.3935 40.9797 61.6525 40.9797 60.3915C40.9797 59.0005 42.0327 58.5975 43.5537 58.2855L44.8407 58.0385C45.3997 57.9345 45.5557 57.9475 45.5557 57.5185C45.5557 56.8295 45.0227 56.3875 44.0997 56.3875C43.0987 56.3875 42.6307 56.8815 42.5267 57.6485L41.2137 57.5445C41.3567 56.1925 42.5007 55.3215 44.0997 55.3215C45.8807 55.3215 46.8947 56.1015 46.8947 57.8825V61.9775C46.8947 62.0945 46.9077 62.2115 46.9077 62.2765H45.6467V62.0165C45.6467 61.8735 45.6467 61.7825 45.6597 61.6915C45.6597 61.6525 45.6597 61.6005 45.6727 61.5615H45.6337C45.1527 62.0815 44.4637 62.3935 43.4367 62.3935ZM43.7487 61.4185C44.9057 61.4185 45.5817 60.6905 45.5817 59.5335V59.2475C45.5817 59.1565 45.5947 59.0395 45.6077 58.9485C45.4127 59.0135 45.1787 59.0395 44.9317 59.0915L43.9567 59.2865C42.8777 59.4945 42.3967 59.6505 42.3967 60.3655C42.3967 61.0415 42.9167 61.4185 43.7487 61.4185ZM56.1715 62.4585C53.3375 62.4585 51.5565 60.4045 51.5565 57.5445C51.5565 54.6845 53.3635 52.6045 56.1715 52.6045C58.1995 52.6045 59.6685 53.6185 60.1495 55.3735L58.7065 55.6075C58.2515 54.4635 57.4065 53.8655 56.1195 53.8655C54.1955 53.8655 53.0645 55.4905 53.0645 57.5315C53.0645 59.6505 54.2865 61.2235 56.2105 61.2235C57.4585 61.2235 58.3295 60.4955 58.7325 59.4035L60.2015 59.6245C59.6945 61.3535 58.2645 62.4585 56.1715 62.4585ZM64.5988 62.4455C62.4538 62.4455 61.1278 61.0285 61.1278 58.8835C61.1278 56.8035 62.4538 55.2565 64.5468 55.2565C66.8738 55.2565 67.8488 57.0115 67.8488 59.2215H62.4798C62.5188 60.4175 63.3898 61.3145 64.6248 61.3145C65.7168 61.3145 66.3278 60.7425 66.6398 60.1835L67.7968 60.6775C67.2638 61.6785 66.1978 62.4455 64.5988 62.4455ZM62.4928 58.1815H66.4318C66.3668 57.2455 65.7428 56.3485 64.5338 56.3485C63.3768 56.3485 62.6358 57.1805 62.4928 58.1815ZM69.4034 62.2765V56.7905C69.4034 56.4395 69.3904 55.7765 69.3904 55.4385H70.7164V55.7245C70.7164 55.8805 70.7164 56.1795 70.7034 56.3485H70.7164C71.1454 55.7115 71.8604 55.2565 72.9004 55.2565C74.3954 55.2565 75.3834 56.1795 75.3834 57.9995V62.2765H74.0054V58.8575C74.0054 57.2715 73.7064 56.4395 72.5234 56.4395C71.3144 56.4395 70.7814 57.2715 70.7814 58.8965V62.2765H69.4034ZM80.1215 62.2765H78.3925C77.8075 61.9515 77.6645 61.3665 77.6645 60.2095V56.5435H76.5205V55.4385H77.6645V53.5665H79.0165V55.4385H80.4205V56.5435H79.0165V59.7675C79.0165 61.3665 79.4065 61.7565 80.1215 61.9905V62.2765ZM84.5812 62.4455C82.4362 62.4455 81.1102 61.0285 81.1102 58.8835C81.1102 56.8035 82.4362 55.2565 84.5292 55.2565C86.8562 55.2565 87.8312 57.0115 87.8312 59.2215H82.4622C82.5012 60.4175 83.3722 61.3145 84.6072 61.3145C85.6992 61.3145 86.3102 60.7425 86.6222 60.1835L87.7792 60.6775C87.2462 61.6785 86.1802 62.4455 84.5812 62.4455ZM82.4752 58.1815H86.4142C86.3492 57.2455 85.7252 56.3485 84.5162 56.3485C83.3592 56.3485 82.6182 57.1805 82.4752 58.1815ZM89.3859 62.2765V56.6865C89.3859 56.1275 89.3859 55.8415 89.3729 55.4385H90.6729V55.8025C90.6729 55.9975 90.6729 56.2835 90.6599 56.4785H90.6859C91.0889 55.6985 91.7519 55.2955 92.6879 55.2955C92.8309 55.2955 92.9609 55.3085 93.0649 55.3345L93.0259 56.6475C92.8829 56.6085 92.7399 56.5955 92.5709 56.5955C91.2709 56.5955 90.7249 57.3495 90.7249 58.8965V62.2765H89.3859ZM1.44248 76.2765V70.5435H0.337481V69.4385H1.44248V68.8405C1.44248 67.2675 2.14448 66.7085 3.54848 66.7085C3.84748 66.7085 4.09448 66.7345 4.34148 66.7735L4.27648 67.9305C4.10748 67.8655 3.91248 67.8395 3.70448 67.8395C3.01548 67.8395 2.79448 68.1645 2.79448 68.8535V69.4385H4.26348V70.5435H2.79448V76.2765H1.44248ZM8.35858 76.4585C6.27858 76.4585 4.87458 75.0025 4.87458 72.8575C4.87458 70.7255 6.29158 69.2435 8.38458 69.2435C10.4386 69.2435 11.8686 70.7255 11.8686 72.8575C11.8686 74.9895 10.4386 76.4585 8.35858 76.4585ZM8.35858 75.3015C9.67158 75.3015 10.4256 74.3135 10.4256 72.8705C10.4256 71.4665 9.67158 70.4005 8.37158 70.4005C7.04558 70.4005 6.30458 71.4405 6.30458 72.8575C6.30458 74.3135 7.05858 75.3015 8.35858 75.3015ZM13.4425 76.2765V70.6865C13.4425 70.1275 13.4425 69.8415 13.4295 69.4385H14.7295V69.8025C14.7295 69.9975 14.7295 70.2835 14.7165 70.4785H14.7425C15.1455 69.6985 15.8085 69.2955 16.7445 69.2955C16.8875 69.2955 17.0175 69.3085 17.1215 69.3345L17.0825 70.6475C16.9395 70.6085 16.7965 70.5955 16.6275 70.5955C15.3275 70.5955 14.7815 71.3495 14.7815 72.8965V76.2765H13.4425ZM21.3169 76.2765V66.7865H22.7729V76.2765H21.3169ZM24.9698 76.2765V70.7905C24.9698 70.4395 24.9568 69.7765 24.9568 69.4385H26.2828V69.7245C26.2828 69.8805 26.2828 70.1795 26.2698 70.3485H26.2828C26.7118 69.7115 27.4268 69.2565 28.4668 69.2565C29.9618 69.2565 30.9498 70.1795 30.9498 71.9995V76.2765H29.5718V72.8575C29.5718 71.2715 29.2728 70.4395 28.0898 70.4395C26.8808 70.4395 26.3478 71.2715 26.3478 72.8965V76.2765H24.9698ZM35.6879 76.2765H33.9589C33.3739 75.9515 33.2309 75.3665 33.2309 74.2095V70.5435H32.0869V69.4385H33.2309V67.5665H34.5829V69.4385H35.9869V70.5435H34.5829V73.7675C34.5829 75.3665 34.9729 75.7565 35.6879 75.9905V76.2765ZM40.1476 76.4455C38.0026 76.4455 36.6766 75.0285 36.6766 72.8835C36.6766 70.8035 38.0026 69.2565 40.0956 69.2565C42.4226 69.2565 43.3976 71.0115 43.3976 73.2215H38.0286C38.0676 74.4175 38.9386 75.3145 40.1736 75.3145C41.2656 75.3145 41.8766 74.7425 42.1886 74.1835L43.3456 74.6775C42.8126 75.6785 41.7466 76.4455 40.1476 76.4455ZM38.0416 72.1815H41.9806C41.9156 71.2455 41.2916 70.3485 40.0826 70.3485C38.9256 70.3485 38.1846 71.1805 38.0416 72.1815ZM44.9523 76.2765V70.6865C44.9523 70.1275 44.9523 69.8415 44.9393 69.4385H46.2393V69.8025C46.2393 69.9975 46.2393 70.2835 46.2263 70.4785H46.2523C46.6553 69.6985 47.3183 69.2955 48.2543 69.2955C48.3973 69.2955 48.5273 69.3085 48.6313 69.3345L48.5923 70.6475C48.4493 70.6085 48.3063 70.5955 48.1373 70.5955C46.8373 70.5955 46.2913 71.3495 46.2913 72.8965V76.2765H44.9523ZM49.878 76.2765V70.7905C49.878 70.4395 49.865 69.7765 49.865 69.4385H51.191V69.7245C51.191 69.8805 51.191 70.1795 51.178 70.3485H51.191C51.62 69.7115 52.335 69.2565 53.375 69.2565C54.87 69.2565 55.858 70.1795 55.858 71.9995V76.2765H54.48V72.8575C54.48 71.2715 54.181 70.4395 52.998 70.4395C51.789 70.4395 51.256 71.2715 51.256 72.8965V76.2765H49.878ZM59.7883 76.3935C58.3193 76.3935 57.3313 75.6525 57.3313 74.3915C57.3313 73.0005 58.3843 72.5975 59.9053 72.2855L61.1923 72.0385C61.7513 71.9345 61.9073 71.9475 61.9073 71.5185C61.9073 70.8295 61.3743 70.3875 60.4513 70.3875C59.4503 70.3875 58.9823 70.8815 58.8783 71.6485L57.5653 71.5445C57.7083 70.1925 58.8523 69.3215 60.4513 69.3215C62.2323 69.3215 63.2463 70.1015 63.2463 71.8825V75.9775C63.2463 76.0945 63.2593 76.2115 63.2593 76.2765H61.9983V76.0165C61.9983 75.8735 61.9983 75.7825 62.0113 75.6915C62.0113 75.6525 62.0113 75.6005 62.0243 75.5615H61.9853C61.5043 76.0815 60.8153 76.3935 59.7883 76.3935ZM60.1003 75.4185C61.2573 75.4185 61.9333 74.6905 61.9333 73.5335V73.2475C61.9333 73.1565 61.9463 73.0395 61.9593 72.9485C61.7643 73.0135 61.5303 73.0395 61.2833 73.0915L60.3083 73.2865C59.2293 73.4945 58.7483 73.6505 58.7483 74.3655C58.7483 75.0415 59.2683 75.4185 60.1003 75.4185ZM67.9594 76.2765H66.2304C65.6454 75.9515 65.5024 75.3665 65.5024 74.2095V70.5435H64.3584V69.4385H65.5024V67.5665H66.8544V69.4385H68.2584V70.5435H66.8544V73.7675C66.8544 75.3665 67.2444 75.7565 67.9594 75.9905V76.2765ZM69.5177 76.2765V69.4385H70.8957V76.2765H69.5177ZM69.5047 68.3855V66.7865H70.9087V68.3855H69.5047ZM75.9484 76.4585C73.8684 76.4585 72.4644 75.0025 72.4644 72.8575C72.4644 70.7255 73.8814 69.2435 75.9744 69.2435C78.0284 69.2435 79.4584 70.7255 79.4584 72.8575C79.4584 74.9895 78.0284 76.4585 75.9484 76.4585ZM75.9484 75.3015C77.2614 75.3015 78.0154 74.3135 78.0154 72.8705C78.0154 71.4665 77.2614 70.4005 75.9614 70.4005C74.6354 70.4005 73.8944 71.4405 73.8944 72.8575C73.8944 74.3135 74.6484 75.3015 75.9484 75.3015ZM81.0323 76.2765V70.7905C81.0323 70.4395 81.0193 69.7765 81.0193 69.4385H82.3453V69.7245C82.3453 69.8805 82.3453 70.1795 82.3323 70.3485H82.3453C82.7743 69.7115 83.4893 69.2565 84.5293 69.2565C86.0243 69.2565 87.0123 70.1795 87.0123 71.9995V76.2765H85.6343V72.8575C85.6343 71.2715 85.3353 70.4395 84.1523 70.4395C82.9433 70.4395 82.4103 71.2715 82.4103 72.8965V76.2765H81.0323ZM90.9426 76.3935C89.4736 76.3935 88.4856 75.6525 88.4856 74.3915C88.4856 73.0005 89.5386 72.5975 91.0596 72.2855L92.3466 72.0385C92.9056 71.9345 93.0616 71.9475 93.0616 71.5185C93.0616 70.8295 92.5286 70.3875 91.6056 70.3875C90.6046 70.3875 90.1366 70.8815 90.0326 71.6485L88.7196 71.5445C88.8626 70.1925 90.0066 69.3215 91.6056 69.3215C93.3866 69.3215 94.4006 70.1015 94.4006 71.8825V75.9775C94.4006 76.0945 94.4136 76.2115 94.4136 76.2765H93.1526V76.0165C93.1526 75.8735 93.1526 75.7825 93.1656 75.6915C93.1656 75.6525 93.1656 75.6005 93.1786 75.5615H93.1396C92.6586 76.0815 91.9696 76.3935 90.9426 76.3935ZM91.2546 75.4185C92.4116 75.4185 93.0876 74.6905 93.0876 73.5335V73.2475C93.0876 73.1565 93.1006 73.0395 93.1136 72.9485C92.9186 73.0135 92.6846 73.0395 92.4376 73.0915L91.4626 73.2865C90.3836 73.4945 89.9026 73.6505 89.9026 74.3655C89.9026 75.0415 90.4226 75.4185 91.2546 75.4185ZM96.3429 76.2765V66.7865H97.7209V76.2765H96.3429ZM1.16948 90.2765V80.7865H4.43248C7.61748 80.7865 9.12548 82.5805 9.12548 85.4535C9.12548 88.1575 7.79948 90.2765 4.51048 90.2765H1.16948ZM2.62548 89.0415H4.26348C6.34348 89.0415 7.63048 88.0015 7.63048 85.5705C7.63048 84.1795 7.27948 83.1655 6.39548 82.5935C5.65448 82.1385 4.78348 82.0345 3.36648 82.0345H2.62548V89.0415ZM10.7765 90.2765V83.4385H12.1545V90.2765H10.7765ZM10.7635 82.3855V80.7865H12.1675V82.3855H10.7635ZM16.5182 90.4325C14.9712 90.4325 13.8922 89.8215 13.5932 88.5215L14.8152 88.1835C15.0752 88.9115 15.6212 89.3665 16.5962 89.3665C17.3372 89.3665 17.9222 89.0025 17.9222 88.4305C17.9222 87.8975 17.4802 87.6765 16.6482 87.4815L15.8682 87.2995C14.6722 87.0265 13.8402 86.5065 13.8402 85.3235C13.8402 84.0105 15.0232 83.2565 16.4792 83.2565C17.8702 83.2565 18.8712 83.8805 19.1442 85.0245L17.9482 85.3625C17.7532 84.7255 17.2592 84.3615 16.4402 84.3615C15.7122 84.3615 15.2312 84.7125 15.2312 85.1935C15.2312 85.7525 15.5952 85.9345 16.4402 86.1295L17.2722 86.3245C18.5332 86.6235 19.3132 87.1305 19.3132 88.2875C19.3132 89.6915 18.1302 90.4325 16.5182 90.4325ZM20.8312 92.7205V84.2185C20.8312 83.9585 20.8182 83.6855 20.8182 83.4385H22.1572V83.7505C22.1572 83.9065 22.1442 84.1665 22.1442 84.3615H22.1702C22.6252 83.7245 23.3922 83.2695 24.4192 83.2695C26.2522 83.2695 27.5782 84.7255 27.5782 86.8575C27.5782 89.0155 26.2522 90.4325 24.4192 90.4325C23.3922 90.4325 22.6642 90.0685 22.1832 89.4055H22.1702C22.2092 89.8345 22.1962 90.2765 22.1962 90.6925V92.7205H20.8312ZM24.1722 89.3015C25.4072 89.3015 26.1482 88.2875 26.1482 86.8965C26.1482 85.4795 25.4072 84.4525 24.1592 84.4525C22.9242 84.4525 22.1442 85.4275 22.1442 86.8835C22.1442 88.3135 22.9242 89.3015 24.1722 89.3015ZM31.5383 90.4325C30.0823 90.4325 29.0683 89.6655 29.0683 87.8585V83.4385H30.4463V87.5075C30.4463 88.7035 30.9403 89.3015 31.9283 89.3015C33.0853 89.3015 33.6313 88.4045 33.6313 87.0655V83.4385H35.0093V89.2625C35.0093 89.6265 35.0093 89.8995 35.0223 90.2765H33.6963V89.9775C33.6963 89.8345 33.6963 89.5615 33.7093 89.4055H33.6833C33.2283 90.0425 32.5263 90.4325 31.5383 90.4325ZM39.9155 90.2765H38.1865C37.6015 89.9515 37.4585 89.3665 37.4585 88.2095V84.5435H36.3145V83.4385H37.4585V81.5665H38.8105V83.4385H40.2145V84.5435H38.8105V87.7675C38.8105 89.3665 39.2005 89.7565 39.9155 89.9905V90.2765ZM44.3752 90.4455C42.2302 90.4455 40.9042 89.0285 40.9042 86.8835C40.9042 84.8035 42.2302 83.2565 44.3232 83.2565C46.6502 83.2565 47.6252 85.0115 47.6252 87.2215H42.2562C42.2952 88.4175 43.1662 89.3145 44.4012 89.3145C45.4932 89.3145 46.1042 88.7425 46.4162 88.1835L47.5732 88.6775C47.0402 89.6785 45.9742 90.4455 44.3752 90.4455ZM42.2692 86.1815H46.2082C46.1432 85.2455 45.5192 84.3485 44.3102 84.3485C43.1532 84.3485 42.4122 85.1805 42.2692 86.1815ZM55.3442 90.4585C53.4722 90.4585 52.0422 89.5485 51.7302 87.8975L53.1212 87.5595C53.3422 88.6385 54.1742 89.2495 55.3572 89.2495C56.5402 89.2495 57.3462 88.6645 57.3462 87.7285C57.3462 86.9485 56.7612 86.5845 55.6692 86.2595L54.8892 86.0255C53.1342 85.5055 52.0682 84.8815 52.0682 83.3085C52.0682 81.6835 53.4592 80.6045 55.3962 80.6045C57.1252 80.6045 58.2952 81.4495 58.6462 82.8925L57.3202 83.2435C57.0732 82.3465 56.3972 81.8525 55.3442 81.8525C54.3042 81.8525 53.5892 82.3595 53.5892 83.1915C53.5892 84.0105 54.1222 84.2835 55.4092 84.6995L56.3322 84.9855C57.7882 85.4405 58.8542 85.9865 58.8542 87.5985C58.8542 89.4055 57.3592 90.4585 55.3442 90.4585ZM63.4182 90.4455C61.2732 90.4455 59.9472 89.0285 59.9472 86.8835C59.9472 84.8035 61.2732 83.2565 63.3662 83.2565C65.6932 83.2565 66.6682 85.0115 66.6682 87.2215H61.2992C61.3382 88.4175 62.2092 89.3145 63.4442 89.3145C64.5362 89.3145 65.1472 88.7425 65.4592 88.1835L66.6162 88.6775C66.0832 89.6785 65.0172 90.4455 63.4182 90.4455ZM61.3122 86.1815H65.2512C65.1862 85.2455 64.5622 84.3485 63.3532 84.3485C62.1962 84.3485 61.4552 85.1805 61.3122 86.1815ZM70.9682 90.2765H69.2392C68.6542 89.9515 68.5112 89.3665 68.5112 88.2095V84.5435H67.3672V83.4385H68.5112V81.5665H69.8632V83.4385H71.2672V84.5435H69.8632V87.7675C69.8632 89.3665 70.2532 89.7565 70.9682 89.9905V90.2765ZM75.3735 90.2765H73.6445C73.0595 89.9515 72.9165 89.3665 72.9165 88.2095V84.5435H71.7725V83.4385H72.9165V81.5665H74.2685V83.4385H75.6725V84.5435H74.2685V87.7675C74.2685 89.3665 74.6585 89.7565 75.3735 89.9905V90.2765ZM76.9318 90.2765V80.7865H78.3098V90.2765H76.9318ZM83.3625 90.4455C81.2175 90.4455 79.8915 89.0285 79.8915 86.8835C79.8915 84.8035 81.2175 83.2565 83.3105 83.2565C85.6375 83.2565 86.6125 85.0115 86.6125 87.2215H81.2435C81.2825 88.4175 82.1535 89.3145 83.3885 89.3145C84.4805 89.3145 85.0915 88.7425 85.4035 88.1835L86.5605 88.6775C86.0275 89.6785 84.9615 90.4455 83.3625 90.4455ZM81.2565 86.1815H85.1955C85.1305 85.2455 84.5065 84.3485 83.2975 84.3485C82.1405 84.3485 81.3995 85.1805 81.2565 86.1815ZM88.1671 90.2765V84.6215C88.1671 84.1405 88.1671 83.8935 88.1541 83.4385H89.4671V83.8415C89.4671 83.9845 89.4671 84.2185 89.4541 84.3615H89.4801C89.8311 83.7375 90.5721 83.2565 91.5601 83.2565C92.5091 83.2565 93.2241 83.6855 93.6271 84.5045C94.0561 83.7765 94.8491 83.2565 95.9411 83.2565C97.5531 83.2565 98.3851 84.2835 98.3851 86.1165V90.2765H97.0071V86.4285C97.0071 85.1805 96.6301 84.4395 95.5901 84.4395C94.3421 84.4395 93.9651 85.4795 93.9651 86.8055V90.2765H92.5871V86.4545C92.5871 85.1675 92.1841 84.4395 91.1831 84.4395C89.9741 84.4395 89.5451 85.4275 89.5451 86.8835V90.2765H88.1671ZM103.345 90.4455C101.2 90.4455 99.8739 89.0285 99.8739 86.8835C99.8739 84.8035 101.2 83.2565 103.293 83.2565C105.62 83.2565 106.595 85.0115 106.595 87.2215H101.226C101.265 88.4175 102.136 89.3145 103.371 89.3145C104.463 89.3145 105.074 88.7425 105.386 88.1835L106.543 88.6775C106.01 89.6785 104.944 90.4455 103.345 90.4455ZM101.239 86.1815H105.178C105.113 85.2455 104.489 84.3485 103.28 84.3485C102.123 84.3485 101.382 85.1805 101.239 86.1815ZM108.15 90.2765V84.7905C108.15 84.4395 108.137 83.7765 108.137 83.4385H109.463V83.7245C109.463 83.8805 109.463 84.1795 109.45 84.3485H109.463C109.892 83.7115 110.607 83.2565 111.647 83.2565C113.142 83.2565 114.13 84.1795 114.13 85.9995V90.2765H112.752V86.8575C112.752 85.2715 112.453 84.4395 111.27 84.4395C110.061 84.4395 109.528 85.2715 109.528 86.8965V90.2765H108.15ZM118.868 90.2765H117.139C116.554 89.9515 116.411 89.3665 116.411 88.2095V84.5435H115.267V83.4385H116.411V81.5665H117.763V83.4385H119.167V84.5435H117.763V87.7675C117.763 89.3665 118.153 89.7565 118.868 89.9905V90.2765Z" fill="#182B3A"/>
</svg>
