<svg width="242" height="91" viewBox="0 0 242 91" fill="none" xmlns="http://www.w3.org/2000/svg">
<path d="M99.5398 13.3458C99.5398 7.46199 104.368 3.53065 109.197 3.53065C111.07 3.53065 112.389 4.05835 113.524 4.71797L115.951 3.53065V10.7601C113.999 7.98968 112.125 5.08736 109.408 5.08736C106.664 5.08736 104.342 7.59391 104.342 11.4989C104.342 16.2745 107.614 18.8866 110.991 18.8866C112.943 18.8866 114.711 18.3589 116.4 16.8814C115.239 19.9948 112.547 22.2638 108.59 22.2638C104.236 22.2638 99.5398 18.9394 99.5398 13.3458ZM117.142 3.7945H126.799V5.27205H124.345V20.5225H126.799V22H117.142V20.5225H119.595V5.27205H117.142V3.7945ZM135.56 3.7945C142.394 3.7945 147.38 6.96067 147.38 12.3959C147.38 18.2006 142.288 22 135.824 22H127.539V20.5225H129.993V5.27205H127.539V3.7945H135.56ZM135.059 5.27205H134.742V20.5225H135.111C139.623 20.5225 142.367 17.4618 142.367 12.4223C142.367 7.67306 139.597 5.27205 135.059 5.27205ZM155.518 5.14012C154.041 5.14012 153.117 5.95805 153.117 7.35645C153.117 11.1822 162.273 10.1005 162.273 16.2217C162.273 19.7045 158.975 22.2638 154.964 22.2638C152.458 22.2638 150.057 21.3668 148.843 20.2586V14.9289C150.69 18.4117 153.038 20.7599 155.175 20.7599C156.758 20.7599 158.025 19.8892 158.025 18.1742C158.025 13.9263 149.159 15.2719 149.159 9.22977C149.159 5.90528 152.141 3.53065 155.413 3.53065C156.969 3.53065 158.447 4.16389 159.318 4.87628L161.481 3.53065V10.2852C159.502 7.46199 157.655 5.14012 155.518 5.14012Z" fill="#192B39"/>
<path d="M104.158 56.6849C101.085 56.6849 99.1418 54.484 99.1418 51.3112C99.1418 48.1528 101.2 45.8518 104.33 45.8518C106.574 45.8518 108.174 46.9666 108.746 48.6959L107.159 49.0389C106.716 47.967 105.716 47.2381 104.344 47.2381C102.129 47.2381 100.8 48.9388 100.8 51.297C100.8 53.6694 102.186 55.3701 104.358 55.3701C106.259 55.3701 107.26 54.1982 107.374 52.3117H103.872V50.9111H108.832V56.4849H107.302V56.1704C107.302 55.8703 107.317 55.5702 107.317 55.3987H107.288C106.874 56.0132 105.645 56.6849 104.158 56.6849ZM114.108 56.6707C111.75 56.6707 110.292 55.1129 110.292 52.7547C110.292 50.468 111.75 48.7673 114.051 48.7673C116.609 48.7673 117.681 50.6967 117.681 53.1263H111.779C111.821 54.4411 112.779 55.4273 114.137 55.4273C115.337 55.4273 116.009 54.7984 116.352 54.1839L117.624 54.727C117.038 55.8274 115.866 56.6707 114.108 56.6707ZM111.793 51.983H116.123C116.052 50.954 115.366 49.9678 114.037 49.9678C112.765 49.9678 111.95 50.8825 111.793 51.983ZM119.39 56.4849V50.4537C119.39 50.0679 119.376 49.339 119.376 48.9674H120.834V49.2818C120.834 49.4533 120.834 49.782 120.819 49.9678H120.834C121.305 49.2675 122.091 48.7673 123.235 48.7673C124.878 48.7673 125.964 49.782 125.964 51.7829V56.4849H124.449V52.7261C124.449 50.9825 124.121 50.0679 122.82 50.0679C121.491 50.0679 120.905 50.9825 120.905 52.769V56.4849H119.39ZM131.429 56.6707C129.07 56.6707 127.613 55.1129 127.613 52.7547C127.613 50.468 129.07 48.7673 131.371 48.7673C133.93 48.7673 135.001 50.6967 135.001 53.1263H129.099C129.142 54.4411 130.099 55.4273 131.457 55.4273C132.658 55.4273 133.329 54.7984 133.672 54.1839L134.944 54.727C134.358 55.8274 133.186 56.6707 131.429 56.6707ZM129.113 51.983H133.444C133.372 50.954 132.686 49.9678 131.357 49.9678C130.085 49.9678 129.27 50.8825 129.113 51.983ZM138.457 56.4849L135.642 48.9674H137.285L138.4 52.3117C138.686 53.1835 139 54.0981 139.272 54.9556H139.315C139.586 54.0981 139.886 53.2121 140.186 52.3117L141.33 48.9674H142.916L140.058 56.4849H138.457ZM146.238 56.6135C144.623 56.6135 143.537 55.7989 143.537 54.4126C143.537 52.8833 144.694 52.4403 146.366 52.0973L147.781 51.8258C148.396 51.7114 148.567 51.7257 148.567 51.2541C148.567 50.4966 147.981 50.0107 146.967 50.0107C145.866 50.0107 145.352 50.5538 145.237 51.397L143.794 51.2827C143.951 49.7963 145.209 48.8388 146.967 48.8388C148.925 48.8388 150.039 49.6963 150.039 51.6542V56.1562C150.039 56.2848 150.054 56.4134 150.054 56.4849H148.667V56.199C148.667 56.0418 148.667 55.9418 148.682 55.8417C148.682 55.7989 148.682 55.7417 148.696 55.6988H148.653C148.124 56.2705 147.367 56.6135 146.238 56.6135ZM146.581 55.5416C147.853 55.5416 148.596 54.7413 148.596 53.4693V53.1549C148.596 53.0548 148.61 52.9262 148.625 52.8262C148.41 52.8976 148.153 52.9262 147.881 52.9834L146.809 53.1978C145.623 53.4264 145.094 53.5979 145.094 54.384C145.094 55.1271 145.666 55.5416 146.581 55.5416ZM160.238 56.6849C157.122 56.6849 155.164 54.4269 155.164 51.2827C155.164 48.1385 157.151 45.8518 160.238 45.8518C162.467 45.8518 164.082 46.9666 164.611 48.8959L163.025 49.1532C162.525 47.8955 161.596 47.2381 160.181 47.2381C158.066 47.2381 156.822 49.0246 156.822 51.2684C156.822 53.5979 158.166 55.3272 160.281 55.3272C161.653 55.3272 162.61 54.5269 163.053 53.3264L164.668 53.5693C164.111 55.4701 162.539 56.6849 160.238 56.6849ZM169.503 56.6707C167.145 56.6707 165.687 55.1129 165.687 52.7547C165.687 50.468 167.145 48.7673 169.446 48.7673C172.004 48.7673 173.076 50.6967 173.076 53.1263H167.173C167.216 54.4411 168.174 55.4273 169.531 55.4273C170.732 55.4273 171.403 54.7984 171.746 54.1839L173.018 54.727C172.432 55.8274 171.261 56.6707 169.503 56.6707ZM167.187 51.983H171.518C171.446 50.954 170.76 49.9678 169.431 49.9678C168.159 49.9678 167.345 50.8825 167.187 51.983ZM174.785 56.4849V50.4537C174.785 50.0679 174.77 49.339 174.77 48.9674H176.228V49.2818C176.228 49.4533 176.228 49.782 176.214 49.9678H176.228C176.7 49.2675 177.486 48.7673 178.629 48.7673C180.273 48.7673 181.359 49.782 181.359 51.7829V56.4849H179.844V52.7261C179.844 50.9825 179.515 50.0679 178.215 50.0679C176.886 50.0679 176.3 50.9825 176.3 52.769V56.4849H174.785ZM186.568 56.4849H184.667C184.024 56.1276 183.867 55.4844 183.867 54.2125V50.1822H182.609V48.9674H183.867V46.9094H185.353V48.9674H186.897V50.1822H185.353V53.7266C185.353 55.4844 185.782 55.9132 186.568 56.1704V56.4849ZM191.471 56.6707C189.113 56.6707 187.655 55.1129 187.655 52.7547C187.655 50.468 189.113 48.7673 191.413 48.7673C193.972 48.7673 195.044 50.6967 195.044 53.1263H189.141C189.184 54.4411 190.142 55.4273 191.499 55.4273C192.7 55.4273 193.371 54.7984 193.714 54.1839L194.986 54.727C194.4 55.8274 193.229 56.6707 191.471 56.6707ZM189.155 51.983H193.486C193.414 50.954 192.728 49.9678 191.399 49.9678C190.127 49.9678 189.313 50.8825 189.155 51.983ZM196.753 56.4849V50.3394C196.753 49.7249 196.753 49.4104 196.738 48.9674H198.168V49.3676C198.168 49.5819 198.168 49.8964 198.153 50.1107H198.182C198.625 49.2532 199.354 48.8102 200.383 48.8102C200.54 48.8102 200.683 48.8245 200.797 48.8531L200.754 50.2965C200.597 50.2537 200.44 50.2394 200.254 50.2394C198.825 50.2394 198.225 51.0683 198.225 52.769V56.4849H196.753ZM205.71 56.4849V50.1822H204.495V48.9674H205.71V48.31C205.71 46.5807 206.481 45.9661 208.025 45.9661C208.354 45.9661 208.625 45.9947 208.897 46.0376L208.825 47.3096C208.64 47.2381 208.425 47.2095 208.196 47.2095C207.439 47.2095 207.196 47.5668 207.196 48.3243V48.9674H208.811V50.1822H207.196V56.4849H205.71ZM213.313 56.6849C211.026 56.6849 209.483 55.0843 209.483 52.7261C209.483 50.3823 211.041 48.753 213.342 48.753C215.6 48.753 217.172 50.3823 217.172 52.7261C217.172 55.07 215.6 56.6849 213.313 56.6849ZM213.313 55.413C214.757 55.413 215.585 54.3268 215.585 52.7404C215.585 51.1969 214.757 50.025 213.327 50.025C211.87 50.025 211.055 51.1683 211.055 52.7261C211.055 54.3268 211.884 55.413 213.313 55.413ZM218.902 56.4849V50.3394C218.902 49.7249 218.902 49.4104 218.888 48.9674H220.317V49.3676C220.317 49.5819 220.317 49.8964 220.303 50.1107H220.331C220.774 49.2532 221.503 48.8102 222.532 48.8102C222.689 48.8102 222.832 48.8245 222.947 48.8531L222.904 50.2965C222.747 50.2537 222.589 50.2394 222.404 50.2394C220.974 50.2394 220.374 51.0683 220.374 52.769V56.4849H218.902ZM99.7706 72.4849V62.0519H101.371V72.4849H99.7706ZM103.787 72.4849V66.4537C103.787 66.0679 103.772 65.339 103.772 64.9674H105.23V65.2818C105.23 65.4533 105.23 65.782 105.216 65.9678H105.23C105.702 65.2675 106.488 64.7673 107.631 64.7673C109.275 64.7673 110.361 65.782 110.361 67.7829V72.4849H108.846V68.7261C108.846 66.9825 108.517 66.0679 107.217 66.0679C105.887 66.0679 105.301 66.9825 105.301 68.769V72.4849H103.787ZM115.57 72.4849H113.669C113.026 72.1276 112.868 71.4844 112.868 70.2125V66.1822H111.611V64.9674H112.868V62.9094H114.355V64.9674H115.898V66.1822H114.355V69.7266C114.355 71.4844 114.784 71.9132 115.57 72.1704V72.4849ZM120.472 72.6707C118.114 72.6707 116.657 71.1129 116.657 68.7547C116.657 66.468 118.114 64.7673 120.415 64.7673C122.974 64.7673 124.045 66.6967 124.045 69.1263H118.143C118.186 70.4411 119.143 71.4273 120.501 71.4273C121.702 71.4273 122.373 70.7984 122.716 70.1839L123.988 70.727C123.402 71.8274 122.23 72.6707 120.472 72.6707ZM118.157 67.983H122.488C122.416 66.954 121.73 65.9678 120.401 65.9678C119.129 65.9678 118.314 66.8825 118.157 67.983ZM125.754 72.4849V66.3394C125.754 65.7249 125.754 65.4104 125.74 64.9674H127.169V65.3676C127.169 65.5819 127.169 65.8964 127.155 66.1107H127.184C127.627 65.2532 128.356 64.8102 129.385 64.8102C129.542 64.8102 129.685 64.8245 129.799 64.8531L129.756 66.2965C129.599 66.2537 129.442 66.2394 129.256 66.2394C127.827 66.2394 127.227 67.0683 127.227 68.769V72.4849H125.754ZM131.17 72.4849V66.4537C131.17 66.0679 131.155 65.339 131.155 64.9674H132.613V65.2818C132.613 65.4533 132.613 65.782 132.599 65.9678H132.613C133.085 65.2675 133.871 64.7673 135.014 64.7673C136.658 64.7673 137.744 65.782 137.744 67.7829V72.4849H136.229V68.7261C136.229 66.9825 135.9 66.0679 134.6 66.0679C133.271 66.0679 132.685 66.9825 132.685 68.769V72.4849H131.17ZM142.065 72.6135C140.45 72.6135 139.364 71.7989 139.364 70.4126C139.364 68.8833 140.521 68.4403 142.193 68.0973L143.608 67.8258C144.223 67.7114 144.394 67.7257 144.394 67.2541C144.394 66.4966 143.808 66.0107 142.794 66.0107C141.693 66.0107 141.179 66.5538 141.064 67.397L139.621 67.2827C139.778 65.7963 141.036 64.8388 142.794 64.8388C144.752 64.8388 145.866 65.6963 145.866 67.6542V72.1562C145.866 72.2848 145.881 72.4134 145.881 72.4849H144.494V72.199C144.494 72.0418 144.494 71.9418 144.509 71.8417C144.509 71.7989 144.509 71.7417 144.523 71.6988H144.48C143.951 72.2705 143.194 72.6135 142.065 72.6135ZM142.408 71.5416C143.68 71.5416 144.423 70.7413 144.423 69.4693V69.1549C144.423 69.0548 144.437 68.9262 144.451 68.8262C144.237 68.8976 143.98 68.9262 143.708 68.9834L142.636 69.1978C141.45 69.4264 140.921 69.5979 140.921 70.384C140.921 71.1271 141.493 71.5416 142.408 71.5416ZM151.048 72.4849H149.147C148.504 72.1276 148.347 71.4844 148.347 70.2125V66.1822H147.089V64.9674H148.347V62.9094H149.833V64.9674H151.376V66.1822H149.833V69.7266C149.833 71.4844 150.262 71.9132 151.048 72.1704V72.4849ZM152.761 72.4849V64.9674H154.276V72.4849H152.761ZM152.747 63.8098V62.0519H154.29V63.8098H152.747ZM159.831 72.6849C157.544 72.6849 156 71.0843 156 68.7261C156 66.3823 157.558 64.753 159.859 64.753C162.117 64.753 163.689 66.3823 163.689 68.7261C163.689 71.07 162.117 72.6849 159.831 72.6849ZM159.831 71.413C161.274 71.413 162.103 70.3268 162.103 68.7404C162.103 67.1969 161.274 66.025 159.845 66.025C158.387 66.025 157.573 67.1683 157.573 68.7261C157.573 70.3268 158.401 71.413 159.831 71.413ZM165.42 72.4849V66.4537C165.42 66.0679 165.405 65.339 165.405 64.9674H166.863V65.2818C166.863 65.4533 166.863 65.782 166.849 65.9678H166.863C167.335 65.2675 168.121 64.7673 169.264 64.7673C170.908 64.7673 171.994 65.782 171.994 67.7829V72.4849H170.479V68.7261C170.479 66.9825 170.15 66.0679 168.85 66.0679C167.521 66.0679 166.935 66.9825 166.935 68.769V72.4849H165.42ZM176.315 72.6135C174.7 72.6135 173.614 71.7989 173.614 70.4126C173.614 68.8833 174.771 68.4403 176.443 68.0973L177.858 67.8258C178.473 67.7114 178.644 67.7257 178.644 67.2541C178.644 66.4966 178.058 66.0107 177.044 66.0107C175.943 66.0107 175.429 66.5538 175.314 67.397L173.871 67.2827C174.028 65.7963 175.286 64.8388 177.044 64.8388C179.002 64.8388 180.116 65.6963 180.116 67.6542V72.1562C180.116 72.2848 180.131 72.4134 180.131 72.4849H178.744V72.199C178.744 72.0418 178.744 71.9418 178.759 71.8417C178.759 71.7989 178.759 71.7417 178.773 71.6988H178.73C178.201 72.2705 177.444 72.6135 176.315 72.6135ZM176.658 71.5416C177.93 71.5416 178.673 70.7413 178.673 69.4693V69.1549C178.673 69.0548 178.687 68.9262 178.701 68.8262C178.487 68.8976 178.23 68.9262 177.958 68.9834L176.886 69.1978C175.7 69.4264 175.171 69.5979 175.171 70.384C175.171 71.1271 175.743 71.5416 176.658 71.5416ZM182.252 72.4849V62.0519H183.767V72.4849H182.252ZM189.638 72.4849V62.0519H193.226C196.727 62.0519 198.385 64.0241 198.385 67.1826C198.385 70.1553 196.927 72.4849 193.311 72.4849H189.638ZM191.239 71.1271H193.04C195.327 71.1271 196.741 69.9838 196.741 67.3112C196.741 65.782 196.356 64.6673 195.384 64.0384C194.569 63.5382 193.612 63.4239 192.054 63.4239H191.239V71.1271ZM200.2 72.4849V64.9674H201.715V72.4849H200.2ZM200.186 63.8098V62.0519H201.729V63.8098H200.186ZM206.512 72.6564C204.812 72.6564 203.625 71.9847 203.297 70.5555L204.64 70.1839C204.926 70.9842 205.526 71.4844 206.598 71.4844C207.413 71.4844 208.056 71.0843 208.056 70.4554C208.056 69.8695 207.57 69.6265 206.655 69.4121L205.798 69.2121C204.483 68.9119 203.568 68.3403 203.568 67.0397C203.568 65.5962 204.869 64.7673 206.469 64.7673C207.999 64.7673 209.099 65.4533 209.399 66.711L208.084 67.0826C207.87 66.3823 207.327 65.9821 206.427 65.9821C205.626 65.9821 205.097 66.368 205.097 66.8968C205.097 67.5113 205.498 67.7114 206.427 67.9258L207.341 68.1402C208.728 68.4689 209.585 69.0263 209.585 70.2982C209.585 71.8417 208.284 72.6564 206.512 72.6564ZM211.254 75.1717V65.8249C211.254 65.5391 211.24 65.2389 211.24 64.9674H212.712V65.3104C212.712 65.4819 212.697 65.7677 212.697 65.9821H212.726C213.226 65.2818 214.069 64.7816 215.198 64.7816C217.213 64.7816 218.671 66.3823 218.671 68.7261C218.671 71.0986 217.213 72.6564 215.198 72.6564C214.069 72.6564 213.269 72.2562 212.74 71.5273H212.726C212.769 71.9989 212.754 72.4849 212.754 72.9422V75.1717H211.254ZM214.927 71.413C216.285 71.413 217.099 70.2982 217.099 68.769C217.099 67.2112 216.285 66.0822 214.912 66.0822C213.555 66.0822 212.697 67.154 212.697 68.7547C212.697 70.3268 213.555 71.413 214.927 71.413ZM223.025 72.6564C221.424 72.6564 220.309 71.8132 220.309 69.8266V64.9674H221.824V69.4407C221.824 70.7556 222.367 71.413 223.454 71.413C224.726 71.413 225.326 70.4269 225.326 68.9548V64.9674H226.841V71.3701C226.841 71.7703 226.841 72.0704 226.855 72.4849H225.397V72.1562C225.397 71.9989 225.397 71.6988 225.412 71.5273H225.383C224.883 72.2276 224.111 72.6564 223.025 72.6564ZM232.234 72.4849H230.334C229.691 72.1276 229.533 71.4844 229.533 70.2125V66.1822H228.276V64.9674H229.533V62.9094H231.02V64.9674H232.563V66.1822H231.02V69.7266C231.02 71.4844 231.448 71.9132 232.234 72.1704V72.4849ZM237.137 72.6707C234.779 72.6707 233.321 71.1129 233.321 68.7547C233.321 66.468 234.779 64.7673 237.08 64.7673C239.638 64.7673 240.71 66.6967 240.71 69.1263H234.808C234.851 70.4411 235.808 71.4273 237.166 71.4273C238.366 71.4273 239.038 70.7984 239.381 70.1839L240.653 70.727C240.067 71.8274 238.895 72.6707 237.137 72.6707ZM234.822 67.983H239.152C239.081 66.954 238.395 65.9678 237.066 65.9678C235.794 65.9678 234.979 66.8825 234.822 67.983ZM102.929 88.6849C100.871 88.6849 99.299 87.6845 98.956 85.8695L100.485 85.4979C100.728 86.6841 101.643 87.3558 102.943 87.3558C104.244 87.3558 105.13 86.7127 105.13 85.6837C105.13 84.8262 104.487 84.426 103.286 84.0687L102.429 83.8115C100.5 83.2398 99.3276 82.5538 99.3276 80.8245C99.3276 79.038 100.857 77.8518 102.986 77.8518C104.887 77.8518 106.173 78.7808 106.559 80.3671L105.101 80.753C104.83 79.7669 104.087 79.2238 102.929 79.2238C101.786 79.2238 101 79.7812 101 80.6959C101 81.5962 101.586 81.8964 103.001 82.3537L104.015 82.6681C105.616 83.1683 106.788 83.7686 106.788 85.5408C106.788 87.5273 105.144 88.6849 102.929 88.6849ZM111.805 88.6707C109.447 88.6707 107.989 87.1129 107.989 84.7547C107.989 82.468 109.447 80.7673 111.748 80.7673C114.306 80.7673 115.378 82.6967 115.378 85.1263H109.476C109.519 86.4411 110.476 87.4273 111.834 87.4273C113.034 87.4273 113.706 86.7984 114.049 86.1839L115.321 86.727C114.735 87.8274 113.563 88.6707 111.805 88.6707ZM109.49 83.983H113.82C113.749 82.954 113.063 81.9678 111.734 81.9678C110.462 81.9678 109.647 82.8825 109.49 83.983ZM120.106 88.4849H118.205C117.562 88.1276 117.404 87.4844 117.404 86.2125V82.1822H116.147V80.9674H117.404V78.9094H118.891V80.9674H120.434V82.1822H118.891V85.7266C118.891 87.4844 119.32 87.9132 120.106 88.1704V88.4849ZM124.949 88.4849H123.048C122.405 88.1276 122.247 87.4844 122.247 86.2125V82.1822H120.99V80.9674H122.247V78.9094H123.734V80.9674H125.277V82.1822H123.734V85.7266C123.734 87.4844 124.163 87.9132 124.949 88.1704V88.4849ZM126.662 88.4849V78.0519H128.177V88.4849H126.662ZM133.731 88.6707C131.373 88.6707 129.916 87.1129 129.916 84.7547C129.916 82.468 131.373 80.7673 133.674 80.7673C136.232 80.7673 137.304 82.6967 137.304 85.1263H131.402C131.445 86.4411 132.402 87.4273 133.76 87.4273C134.961 87.4273 135.632 86.7984 135.975 86.1839L137.247 86.727C136.661 87.8274 135.489 88.6707 133.731 88.6707ZM131.416 83.983H135.747C135.675 82.954 134.989 81.9678 133.66 81.9678C132.388 81.9678 131.573 82.8825 131.416 83.983ZM139.013 88.4849V82.2679C139.013 81.7392 139.013 81.4676 138.999 80.9674H140.443V81.4104C140.443 81.5677 140.443 81.8249 140.428 81.9821H140.457C140.843 81.2961 141.657 80.7673 142.744 80.7673C143.787 80.7673 144.573 81.2389 145.016 82.1393C145.488 81.339 146.359 80.7673 147.56 80.7673C149.332 80.7673 150.247 81.8964 150.247 83.9115V88.4849H148.732V84.2545C148.732 82.8825 148.317 82.0679 147.174 82.0679C145.802 82.0679 145.388 83.2112 145.388 84.669V88.4849H143.873V84.2831C143.873 82.8682 143.43 82.0679 142.329 82.0679C141 82.0679 140.528 83.154 140.528 84.7547V88.4849H139.013ZM155.699 88.6707C153.341 88.6707 151.884 87.1129 151.884 84.7547C151.884 82.468 153.341 80.7673 155.642 80.7673C158.2 80.7673 159.272 82.6967 159.272 85.1263H153.37C153.413 86.4411 154.37 87.4273 155.728 87.4273C156.929 87.4273 157.6 86.7984 157.943 86.1839L159.215 86.727C158.629 87.8274 157.457 88.6707 155.699 88.6707ZM153.384 83.983H157.715C157.643 82.954 156.957 81.9678 155.628 81.9678C154.356 81.9678 153.541 82.8825 153.384 83.983ZM160.981 88.4849V82.4537C160.981 82.0679 160.967 81.339 160.967 80.9674H162.425V81.2818C162.425 81.4533 162.425 81.782 162.411 81.9678H162.425C162.897 81.2675 163.683 80.7673 164.826 80.7673C166.469 80.7673 167.556 81.782 167.556 83.7829V88.4849H166.041V84.7261C166.041 82.9825 165.712 82.0679 164.411 82.0679C163.082 82.0679 162.496 82.9825 162.496 84.769V88.4849H160.981ZM172.765 88.4849H170.864C170.221 88.1276 170.063 87.4844 170.063 86.2125V82.1822H168.806V80.9674H170.063V78.9094H171.55V80.9674H173.093V82.1822H171.55V85.7266C171.55 87.4844 171.979 87.9132 172.765 88.1704V88.4849Z" fill="#192B39"/>
<g clip-path="url(#clip0_4829_1079)">
<path d="M51.0292 85.2654C48.7479 84.6944 46.6924 83.963 46.6924 83.963C47.017 83.9063 46.7206 83.9441 48.8138 83.5524C50.888 83.1655 51.3631 83.0853 53.174 83.0569C56.396 83.0098 56.1044 84.4585 56.1044 84.4585C56.1044 85.4022 55.3659 86.0534 55.3659 86.0534C55.3659 86.0534 53.7243 85.9355 51.0292 85.2654ZM23.1884 80.6881C19.83 80.589 19.957 79.1591 19.957 79.1591C19.957 78.2154 20.7473 77.6349 20.7473 77.6349C20.7473 77.6349 22.4547 77.7199 25.1451 78.3428C27.4311 78.876 31.1799 80.136 31.1799 80.136C30.86 80.1973 29.7076 80.4144 27.2382 80.5842C25.8601 80.6739 25.3098 80.7116 24.5854 80.7116C24.2138 80.7116 23.7905 80.7117 23.1884 80.6881ZM60.6481 79.4092C59.6415 79.263 58.3762 78.994 56.9134 78.6495C53.3669 77.8284 50.5541 76.913 50.5541 76.913C51.0245 76.8469 50.7046 76.7714 53.7667 76.4505C56.7441 76.1391 57.2567 75.8937 59.8955 75.9597C64.9895 76.0871 64.6885 77.7435 64.6885 77.7435C64.6885 78.8383 63.4702 79.6074 63.4702 79.6074C63.4702 79.6074 63.3903 79.6074 63.2209 79.6074C62.8164 79.6074 61.9369 79.5838 60.6575 79.3998M15.959 71.1465C12.436 70.8067 12.6429 69.4099 12.6429 69.4099C12.6429 68.2444 13.7436 67.7158 13.7436 67.7158C13.7436 67.7158 13.7436 67.4893 17.9862 68.1641C21.1471 68.6691 27.464 70.6982 27.464 70.6982C27.1395 70.769 23.1931 71.2125 20.7237 71.2739C19.7642 71.2975 19.2421 71.3211 18.72 71.3211C18.0662 71.3211 17.4218 71.2786 15.959 71.1418M60.554 68.9144C54.5004 67.1496 54.0771 67.0269 54.0771 67.0269C54.0771 67.0269 60.5305 66.0689 64.6085 65.9368C68.6818 65.8094 69.5849 65.9887 70.5398 66.4559C71.4899 66.9184 72.1813 67.6215 71.6545 68.7587C71.1324 69.9007 70.5163 70.1838 70.1541 70.3631C70.1541 70.3631 69.9095 70.3914 69.4391 70.3914C68.1174 70.3914 65.0177 70.2169 60.554 68.9144ZM11.0013 59.9061C7.37956 59.4153 7.40308 57.8109 7.40308 57.8109C7.40308 56.2018 8.73421 55.7252 8.73421 55.7252C8.73421 55.7252 8.43788 55.4987 12.8169 56.0932C17.6005 56.7397 26.2223 59.4153 26.2223 59.4153C25.8977 59.472 21.9467 59.7976 19.482 59.9816C18.1556 60.076 16.7257 60.1798 15.1923 60.1798C13.8706 60.1798 12.4736 60.1043 10.9966 59.9061M66.0243 57.8723C61.5935 56.7822 56.6265 54.9985 56.6265 54.9985C57.158 54.8946 59.2793 54.4794 62.7318 54.1066C66.1748 53.7244 67.0591 53.6488 69.9894 53.6347C76.4946 53.5969 76.17 55.8479 76.17 55.8479C76.3158 57.7165 74.0204 59.0331 74.0204 59.0331C74.0204 59.0331 70.4974 58.967 66.0196 57.8723M9.43504 47.3444C5.69096 47.0613 5.38523 45.0416 5.38523 45.0416C5.38523 43.0219 7.43601 41.9838 7.43601 41.9838C7.43601 41.9838 7.07853 41.7242 12.2431 42.4462C17.4124 43.1776 27.4217 46.6413 27.4217 46.6413C27.036 46.7215 22.6099 47.1793 19.703 47.4199C18.3954 47.5237 16.942 47.5756 15.3945 47.5756C13.5131 47.5756 11.4858 47.4954 9.43034 47.3397M67.0215 44.8953C63.0234 43.9657 56.951 41.9649 56.951 41.9649C59.2135 41.5355 67.2755 40.7757 68.1362 40.7757C71.5275 40.7757 76.043 40.4973 77.0825 42.2763C77.6846 43.305 77.0496 44.4565 76.3017 45.169C75.8031 45.6503 75.2434 45.9476 75.2434 45.9476C75.06 45.9665 74.8577 45.9665 74.6272 45.9665C73.0938 45.9665 70.4786 45.6975 67.0215 44.8953ZM6.95153 32.6592C5.95437 30.7953 8.63543 29.1673 8.63543 29.1673C9.91481 29.2333 11.6693 29.2805 17.069 30.4838C20.9072 31.3474 27.7603 33.6974 27.7603 33.6974C25.4179 34.0891 19.8865 34.5043 16.0671 34.6459C15.7332 34.6553 15.3616 34.6648 14.9524 34.6648C12.1584 34.6648 7.84522 34.3203 6.95153 32.6592ZM66.617 31.5881C63.0375 30.8849 57.4919 29.2475 57.4919 29.2475C61.7675 28.5916 64.8484 28.5444 67.5106 28.3037C71.7251 27.9073 74.2933 28.5633 75.027 29.592C75.5773 30.3564 75.0929 31.2436 74.5708 31.8098C74.1898 32.2251 73.7712 32.428 73.7712 32.428C73.6065 32.4375 73.4231 32.4422 73.2255 32.4422C71.8897 32.4422 69.7496 32.2062 66.6123 31.5928M15.3146 22.4853C13.6589 22.3107 12.1114 21.853 11.4858 20.9564C10.5075 19.5596 12.6994 17.9788 12.6994 17.9788C13.7906 18.0401 15.5498 18.026 20.4274 19.0924C23.7105 19.805 29.6841 21.6831 29.6841 21.6831C27.6804 22.0182 22.7181 22.3862 19.6513 22.5136C19.0587 22.5325 18.2355 22.5797 17.3465 22.5797C16.688 22.5797 15.9919 22.5608 15.3146 22.49M63.0798 19.9183C60.3188 19.4558 55.9303 18.1015 55.9303 18.1015C57.5484 17.7853 61.4289 17.3559 63.7995 17.304C66.1795 17.2521 69.0487 17.3701 69.7778 18.3374C70.5868 19.4322 68.6818 20.6166 68.6818 20.6166C68.5548 20.6308 68.409 20.6355 68.2538 20.6355C67.2284 20.6355 65.5963 20.3477 63.0798 19.9183ZM18.6259 11.2166C17.9674 10.0369 19.3926 8.92797 19.3926 8.92797C20.2204 8.97516 22.5676 9.08369 25.3239 9.68299C27.8215 10.2209 32.4593 11.7782 32.4593 11.7782C30.9259 12.0896 26.9748 12.3444 24.7171 12.4624C24.3361 12.4813 23.9316 12.4907 23.5177 12.4907C21.4622 12.4907 19.1715 12.2029 18.6259 11.2166ZM56.9839 10.169C55.0508 9.70659 51.7817 8.67315 51.7817 8.67315C52.9576 8.35699 55.761 7.96532 57.4872 7.81431C59.204 7.66331 61.3113 7.73881 61.8287 8.72506C62.3461 9.70187 61.2313 10.7589 61.2313 10.7589C61.1137 10.7778 60.9726 10.7872 60.8127 10.7872C59.9754 10.7872 58.5738 10.5513 56.9792 10.169M27.5628 4.52997C27.116 3.58147 28.0755 2.55276 28.0755 2.55276C28.6211 2.57163 30.0557 2.84533 31.702 3.21812C33.3483 3.58619 36.1704 4.5866 36.1704 4.5866C35.1591 4.89804 32.7556 5.27555 31.2787 5.41712C30.9259 5.45487 30.5496 5.47847 30.1827 5.47847C29.0209 5.47847 27.9062 5.25668 27.5628 4.52997ZM51.2502 0.33488C49.9332 0.726548 46.4761 1.79773 45.6623 2.03368C44.8486 2.26962 43.3058 2.73679 42.3369 3.00577C41.3773 3.27475 39.5147 3.76551 39.4347 3.7891C39.4347 3.7891 37.224 3.02936 36.6126 2.85948C35.9964 2.6896 34.3736 2.19412 32.718 1.97233C31.067 1.75526 29.6747 1.71751 28.5176 1.85436C27.3652 2.00065 25.5967 2.29794 24.8817 2.79342C24.1621 3.28418 23.7952 3.85517 23.6776 4.60547C23.6776 4.60547 23.6212 5.18118 24.1197 5.61059C24.6183 6.03058 25.6155 6.29011 26.6879 6.27596C27.7603 6.25708 29.5242 6.1627 30.7283 5.99282C31.9372 5.81822 34.1526 5.45015 34.7593 5.33218C35.3614 5.21421 36.9418 4.86973 36.9418 4.86973C36.9418 4.86973 40.0603 6.10136 40.8599 6.4364C42.2616 7.0357 44.6322 8.04554 45.0179 8.20126C45.4319 8.37114 47.1722 9.10257 47.1722 9.10257L36.9418 11.1317C36.9418 11.1317 32.3558 9.57918 29.3125 8.91853C26.2787 8.25317 22.8968 7.79544 19.4914 8.28148C16.086 8.77225 14.7125 9.60277 14.2139 10.8486C13.7106 12.0943 15.1546 13.3684 19.2045 13.4392C19.2045 13.4392 23.2167 13.5761 31.9042 12.3728L33.4988 12.1415C33.4988 12.1415 39.9474 14.4679 41.6125 15.1191C43.3152 15.7939 50.1449 18.4648 50.1449 18.4648L35.0321 20.9706C35.0321 20.9706 30.5966 19.4983 25.8836 18.328C21.1659 17.1671 16.895 16.7755 13.9176 17.1483C10.9261 17.5116 7.0362 18.177 6.50469 20.56C5.96848 22.9525 10.2723 23.5329 12.0409 23.5565C13.8094 23.5754 20.5638 23.3772 24.496 22.9572C28.4283 22.5278 31.1705 22.155 31.1705 22.155C31.1705 22.155 40.2014 25.3733 42.3698 26.1944C44.5617 27.0249 51.2361 29.6392 51.2361 29.6392L33.6822 32.8999C33.6822 32.8999 26.4104 30.2998 22.0125 29.3277C17.6146 28.3556 14.0681 28.0489 10.7379 28.2612C7.41719 28.4783 2.71828 29.3277 1.4483 31.9325C1.4483 31.9325 0.521685 34.0655 3.54141 35.1036C6.56113 36.1323 15.6015 35.6086 15.8696 35.5897C16.133 35.5708 26.0953 34.712 28.7246 34.2542C28.7763 34.2448 29.068 34.207 29.115 34.2023C29.115 34.2023 33.6822 35.887 35.8976 36.7316C38.7198 37.8311 45.3378 40.6247 46.3349 41.007C47.3886 41.4175 50.0555 42.4934 50.0555 42.4934L33.2354 45.7683C33.2354 45.7683 23.0191 41.9649 15.6203 41.1485C8.2074 40.3133 0.375873 42.1772 0.0183974 45.169C-0.334374 48.1608 3.95533 48.5477 8.52725 48.6657C13.0992 48.7837 24.3926 47.8116 28.4988 47.033L49.6933 55.4987L31.6079 58.7264C31.6079 58.7264 19.1386 54.6445 13.1321 54.72C7.13027 54.805 2.94875 55.8479 2.55365 58.3819C2.55365 58.3819 2.37961 61.3312 9.49149 61.133C16.6034 60.9395 21.8902 60.9018 27.2477 59.925L27.6757 59.8495C27.6757 59.8495 35.3943 62.492 39.4394 64.0493C43.4751 65.6065 48.1176 67.3855 48.1176 67.3855L32.1818 70.0658C32.1818 70.0658 20.6014 65.8377 14.0634 67.041C14.0634 67.041 8.63073 67.428 8.30618 70.0658C7.98633 72.7131 18.8141 72.1233 22.1019 71.7694C25.3897 71.4202 28.5317 71.071 28.5317 71.071L44.8298 77.1725L34.6465 79.3102C34.6465 79.3102 26.4245 76.2382 21.7444 76.8988C21.7444 76.8988 16.1001 77.1347 16.2036 79.8906C16.2036 79.8906 16.0813 81.7781 22.3512 81.4855C28.6211 81.1977 31.0341 80.438 32.0171 80.4568C32.0171 80.4568 35.5731 81.7781 37.1817 82.4246C38.7903 83.0617 42.398 84.4396 42.398 84.4396C42.398 84.4396 35.7518 86.1525 34.1949 86.5961C32.6427 87.0444 29.1385 87.8985 29.195 88.1156C29.2467 88.3279 31.2692 87.9787 32.083 87.7664C32.9061 87.554 42.826 84.7605 43.2164 84.7369C43.2164 84.7369 49.2042 86.9311 52.7742 86.8085C56.3442 86.6952 58.1175 86.1714 58.8325 85.5863C59.5474 85.0058 59.9237 84.3074 59.8531 83.5477C59.7826 82.788 58.2116 82.1132 55.7845 82.283C53.3527 82.4624 51.2267 82.6181 45.9022 83.6657L35.9305 79.7868L45.9022 77.5878C45.9022 77.5878 50.1543 78.909 52.4167 79.4187C54.6933 79.9142 58.5267 80.7352 61.6358 80.4049C64.7496 80.0746 68.1974 79.7065 68.8935 77.1819C68.8935 77.1819 69.7166 74.4874 60.8879 75.2425C52.064 75.9975 49.4864 76.5402 49.4864 76.5402L34.336 70.8114L49.0442 67.881C49.0442 67.881 57.4543 70.5236 61.1749 70.9672C64.8907 71.406 68.0139 71.7694 72.6047 70.5472C77.2001 69.3297 76.6545 67.0552 76.5134 66.7438C76.3723 66.4323 75.7984 65.4744 73.0139 65.0827C70.2293 64.6958 65.9632 64.9789 63.7995 65.2101C61.6311 65.4461 52.9812 66.5314 52.793 66.6069C52.793 66.6069 36.495 60.26 32.972 59.1794L50.9586 55.9375C50.9586 55.9375 59.1053 58.8113 63.9923 59.5899C68.8747 60.3685 71.8991 60.26 76.4052 59.3021C80.9066 58.3441 81.5509 55.9658 81.4757 54.871C81.4051 53.7904 79.4578 52.1813 73.6159 52.521C67.7787 52.8561 61.6123 53.2997 55.3659 54.5124L34.4489 46.2024L51.8852 43.0927L56.2925 44.4423C64.8202 47.2406 71.5134 47.1368 71.5134 47.1368C77.5623 46.882 80.8736 45.5843 82.3741 43.2531C83.8792 40.922 80.0411 39.9405 80.0411 39.9405C76.4428 39.2091 68.2444 39.8886 65.6292 40.1245C63.0093 40.3557 55.5305 41.4977 55.5305 41.4977C53.555 40.8843 48.1035 38.454 42.9907 36.4108C38.7057 34.7214 34.9004 33.3388 34.9004 33.3388L52.3838 30.0497C52.3838 30.0497 57.3132 31.5503 62.5765 32.664C67.8399 33.7776 72.3695 33.7257 76.5369 32.513C80.7137 31.2955 80.0411 29.2239 80.0411 29.2239C79.0345 26.704 72.4871 27.2042 68.6066 27.459C64.7214 27.7186 56.2455 28.8039 56.2455 28.8039C56.2455 28.8039 52.2145 27.3552 50.0696 26.5294C47.9295 25.6989 36.3727 21.4047 36.3727 21.4047L51.2173 18.8093C58.0517 20.7771 61.9604 21.6831 66.8427 21.4283C71.7251 21.1688 73.583 19.6162 74.0816 18.6064C74.5802 17.5966 73.6065 16.9218 71.8474 16.5631C70.0788 16.1998 68.4608 16.4074 65.4128 16.5631C62.3649 16.7188 54.7168 17.7523 54.7168 17.7523C54.7168 17.7523 50.6199 16.2753 49.5475 15.8364C48.4798 15.3976 37.9014 11.4573 37.9014 11.4573C39.6135 11.1458 48.0518 9.37627 48.0518 9.37627C48.0518 9.37627 52.84 11.1694 57.4543 11.4856C62.0827 11.7923 64.3686 10.4946 64.3686 10.4946C66.4382 8.94213 65.5586 8.08801 65.5586 8.08801C64.6038 6.74313 60.982 7.07817 58.3621 7.28108C55.7469 7.49343 50.8833 8.37114 50.8833 8.37114C50.3377 8.0361 40.2767 4.10055 40.2767 4.10055C40.2767 4.10055 42.7978 3.44463 43.16 3.35025C43.5222 3.25115 46.5372 2.40647 47.6049 2.08559C48.6773 1.75055 49.1806 1.63257 50.5118 1.20787C51.8476 0.783175 51.7911 0.863396 52.6801 0.575544C53.5691 0.287692 53.6444 0.231065 53.6773 0.155563C53.7102 0.0753417 53.2493 0.0187151 53.1458 0.0139962C53.1176 0.0139962 53.0705 0.00927734 52.9953 0.00927734C52.7554 0.00927734 52.238 0.0517473 51.2502 0.344318" fill="#192B39"/>
</g>
<defs>
<clipPath id="clip0_4829_1079">
<rect width="82.7273" height="88.1818" fill="white"/>
</clipPath>
</defs>
</svg>
