<svg width="234" height="87" viewBox="0 0 234 87" fill="none" xmlns="http://www.w3.org/2000/svg">
<path d="M108.945 26.57C101.611 26.57 96.4435 20.984 96.4435 13.878C96.3675 6.05 101.117 0.0459989 109.211 0.0459989C114.189 0.0459989 118.065 2.212 119.281 5.898L114.569 7.304C113.885 3.58 111.757 1.11 108.831 1.11C104.613 1.11 101.725 5.404 101.763 11.864C101.801 18.4 105.829 22.732 111.225 22.732C115.063 22.732 118.065 20.604 119.205 17.298L119.737 17.412C118.673 22.998 114.531 26.57 108.945 26.57ZM121.135 25.468C123.453 25.202 124.479 24.67 124.479 22.846V3.732C124.479 1.946 123.453 1.414 121.135 1.148V0.615998H132.991V1.148C130.673 1.414 129.647 1.946 129.647 3.732V22.846C129.647 24.67 130.673 25.202 132.991 25.468V26H121.135V25.468ZM146.252 0.615998C156.398 0.615998 160.502 6.316 160.502 12.472C160.502 21.022 153.738 26 146.784 26H134.662V25.468C136.98 25.202 138.006 24.67 138.006 22.846V3.732C138.006 1.946 136.98 1.414 134.662 1.148V0.615998H146.252ZM146.784 24.936C151.724 24.936 155.068 20.566 155.068 13.308C155.068 7.608 151.572 1.68 145.606 1.68H143.174V22.998C143.174 24.442 144.048 24.936 146.784 24.936ZM172.818 26.532C167.84 26.532 163.736 24.404 162.52 20.452L167.004 19.198C167.802 22.96 170.348 25.468 173.35 25.468C176.048 25.468 177.872 23.72 177.872 21.174C177.872 13.764 163.394 16.5 163.394 7.38C163.394 3.01 166.966 0.0459989 172.704 0.0459989C177.378 0.0459989 181.33 2.06 182.584 5.86L178.138 7.114C177.34 3.428 175.212 1.11 172.172 1.11C169.664 1.11 167.916 2.706 167.916 5.024C167.916 11.864 182.736 9.47 182.736 18.818C182.736 23.606 178.822 26.532 172.818 26.532Z" fill="#182B3A"/>
<path d="M100.16 56.4585C97.3655 56.4585 95.5975 54.4565 95.5975 51.5705C95.5975 48.6975 97.4695 46.6045 100.316 46.6045C102.357 46.6045 103.813 47.6185 104.333 49.1915L102.89 49.5035C102.487 48.5285 101.577 47.8655 100.329 47.8655C98.3145 47.8655 97.1055 49.4125 97.1055 51.5575C97.1055 53.7155 98.3665 55.2625 100.342 55.2625C102.071 55.2625 102.981 54.1965 103.085 52.4805H99.9005V51.2065H104.411V56.2765H103.02V55.9905C103.02 55.7175 103.033 55.4445 103.033 55.2885H103.007C102.63 55.8475 101.512 56.4585 100.16 56.4585ZM109.211 56.4455C107.066 56.4455 105.74 55.0285 105.74 52.8835C105.74 50.8035 107.066 49.2565 109.159 49.2565C111.486 49.2565 112.461 51.0115 112.461 53.2215H107.092C107.131 54.4175 108.002 55.3145 109.237 55.3145C110.329 55.3145 110.94 54.7425 111.252 54.1835L112.409 54.6775C111.876 55.6785 110.81 56.4455 109.211 56.4455ZM107.105 52.1815H111.044C110.979 51.2455 110.355 50.3485 109.146 50.3485C107.989 50.3485 107.248 51.1805 107.105 52.1815ZM114.016 56.2765V50.7905C114.016 50.4395 114.003 49.7765 114.003 49.4385H115.329V49.7245C115.329 49.8805 115.329 50.1795 115.316 50.3485H115.329C115.758 49.7115 116.473 49.2565 117.513 49.2565C119.008 49.2565 119.996 50.1795 119.996 51.9995V56.2765H118.618V52.8575C118.618 51.2715 118.319 50.4395 117.136 50.4395C115.927 50.4395 115.394 51.2715 115.394 52.8965V56.2765H114.016ZM124.966 56.4455C122.821 56.4455 121.495 55.0285 121.495 52.8835C121.495 50.8035 122.821 49.2565 124.914 49.2565C127.241 49.2565 128.216 51.0115 128.216 53.2215H122.847C122.886 54.4175 123.757 55.3145 124.992 55.3145C126.084 55.3145 126.695 54.7425 127.007 54.1835L128.164 54.6775C127.631 55.6785 126.565 56.4455 124.966 56.4455ZM122.86 52.1815H126.799C126.734 51.2455 126.11 50.3485 124.901 50.3485C123.744 50.3485 123.003 51.1805 122.86 52.1815ZM131.359 56.2765L128.798 49.4385H130.293L131.307 52.4805C131.567 53.2735 131.853 54.1055 132.1 54.8855H132.139C132.386 54.1055 132.659 53.2995 132.932 52.4805L133.972 49.4385H135.415L132.815 56.2765H131.359ZM138.437 56.3935C136.968 56.3935 135.98 55.6525 135.98 54.3915C135.98 53.0005 137.033 52.5975 138.554 52.2855L139.841 52.0385C140.4 51.9345 140.556 51.9475 140.556 51.5185C140.556 50.8295 140.023 50.3875 139.1 50.3875C138.099 50.3875 137.631 50.8815 137.527 51.6485L136.214 51.5445C136.357 50.1925 137.501 49.3215 139.1 49.3215C140.881 49.3215 141.895 50.1015 141.895 51.8825V55.9775C141.895 56.0945 141.908 56.2115 141.908 56.2765H140.647V56.0165C140.647 55.8735 140.647 55.7825 140.66 55.6915C140.66 55.6525 140.66 55.6005 140.673 55.5615H140.634C140.153 56.0815 139.464 56.3935 138.437 56.3935ZM138.749 55.4185C139.906 55.4185 140.582 54.6905 140.582 53.5335V53.2475C140.582 53.1565 140.595 53.0395 140.608 52.9485C140.413 53.0135 140.179 53.0395 139.932 53.0915L138.957 53.2865C137.878 53.4945 137.397 53.6505 137.397 54.3655C137.397 55.0415 137.917 55.4185 138.749 55.4185ZM151.171 56.4585C148.337 56.4585 146.556 54.4045 146.556 51.5445C146.556 48.6845 148.363 46.6045 151.171 46.6045C153.199 46.6045 154.668 47.6185 155.149 49.3735L153.706 49.6075C153.251 48.4635 152.406 47.8655 151.119 47.8655C149.195 47.8655 148.064 49.4905 148.064 51.5315C148.064 53.6505 149.286 55.2235 151.21 55.2235C152.458 55.2235 153.329 54.4955 153.732 53.4035L155.201 53.6245C154.694 55.3535 153.264 56.4585 151.171 56.4585ZM159.599 56.4455C157.454 56.4455 156.128 55.0285 156.128 52.8835C156.128 50.8035 157.454 49.2565 159.547 49.2565C161.874 49.2565 162.849 51.0115 162.849 53.2215H157.48C157.519 54.4175 158.39 55.3145 159.625 55.3145C160.717 55.3145 161.328 54.7425 161.64 54.1835L162.797 54.6775C162.264 55.6785 161.198 56.4455 159.599 56.4455ZM157.493 52.1815H161.432C161.367 51.2455 160.743 50.3485 159.534 50.3485C158.377 50.3485 157.636 51.1805 157.493 52.1815ZM164.403 56.2765V50.7905C164.403 50.4395 164.39 49.7765 164.39 49.4385H165.716V49.7245C165.716 49.8805 165.716 50.1795 165.703 50.3485H165.716C166.145 49.7115 166.86 49.2565 167.9 49.2565C169.395 49.2565 170.383 50.1795 170.383 51.9995V56.2765H169.005V52.8575C169.005 51.2715 168.706 50.4395 167.523 50.4395C166.314 50.4395 165.781 51.2715 165.781 52.8965V56.2765H164.403ZM175.122 56.2765H173.393C172.808 55.9515 172.665 55.3665 172.665 54.2095V50.5435H171.521V49.4385H172.665V47.5665H174.017V49.4385H175.421V50.5435H174.017V53.7675C174.017 55.3665 174.407 55.7565 175.122 55.9905V56.2765ZM179.581 56.4455C177.436 56.4455 176.11 55.0285 176.11 52.8835C176.11 50.8035 177.436 49.2565 179.529 49.2565C181.856 49.2565 182.831 51.0115 182.831 53.2215H177.462C177.501 54.4175 178.372 55.3145 179.607 55.3145C180.699 55.3145 181.31 54.7425 181.622 54.1835L182.779 54.6775C182.246 55.6785 181.18 56.4455 179.581 56.4455ZM177.475 52.1815H181.414C181.349 51.2455 180.725 50.3485 179.516 50.3485C178.359 50.3485 177.618 51.1805 177.475 52.1815ZM184.386 56.2765V50.6865C184.386 50.1275 184.386 49.8415 184.373 49.4385H185.673V49.8025C185.673 49.9975 185.673 50.2835 185.66 50.4785H185.686C186.089 49.6985 186.752 49.2955 187.688 49.2955C187.831 49.2955 187.961 49.3085 188.065 49.3345L188.026 50.6475C187.883 50.6085 187.74 50.5955 187.571 50.5955C186.271 50.5955 185.725 51.3495 185.725 52.8965V56.2765H184.386ZM96.4425 70.2765V64.5435H95.3375V63.4385H96.4425V62.8405C96.4425 61.2675 97.1445 60.7085 98.5485 60.7085C98.8475 60.7085 99.0945 60.7345 99.3415 60.7735L99.2765 61.9305C99.1075 61.8655 98.9125 61.8395 98.7045 61.8395C98.0155 61.8395 97.7945 62.1645 97.7945 62.8535V63.4385H99.2635V64.5435H97.7945V70.2765H96.4425ZM103.359 70.4585C101.279 70.4585 99.8746 69.0025 99.8746 66.8575C99.8746 64.7255 101.292 63.2435 103.385 63.2435C105.439 63.2435 106.869 64.7255 106.869 66.8575C106.869 68.9895 105.439 70.4585 103.359 70.4585ZM103.359 69.3015C104.672 69.3015 105.426 68.3135 105.426 66.8705C105.426 65.4665 104.672 64.4005 103.372 64.4005C102.046 64.4005 101.305 65.4405 101.305 66.8575C101.305 68.3135 102.059 69.3015 103.359 69.3015ZM108.442 70.2765V64.6865C108.442 64.1275 108.442 63.8415 108.429 63.4385H109.729V63.8025C109.729 63.9975 109.729 64.2835 109.716 64.4785H109.742C110.145 63.6985 110.808 63.2955 111.744 63.2955C111.887 63.2955 112.017 63.3085 112.121 63.3345L112.082 64.6475C111.939 64.6085 111.796 64.5955 111.627 64.5955C110.327 64.5955 109.781 65.3495 109.781 66.8965V70.2765H108.442ZM116.317 70.2765V60.7865H117.773V70.2765H116.317ZM119.97 70.2765V64.7905C119.97 64.4395 119.957 63.7765 119.957 63.4385H121.283V63.7245C121.283 63.8805 121.283 64.1795 121.27 64.3485H121.283C121.712 63.7115 122.427 63.2565 123.467 63.2565C124.962 63.2565 125.95 64.1795 125.95 65.9995V70.2765H124.572V66.8575C124.572 65.2715 124.273 64.4395 123.09 64.4395C121.881 64.4395 121.348 65.2715 121.348 66.8965V70.2765H119.97ZM130.688 70.2765H128.959C128.374 69.9515 128.231 69.3665 128.231 68.2095V64.5435H127.087V63.4385H128.231V61.5665H129.583V63.4385H130.987V64.5435H129.583V67.7675C129.583 69.3665 129.973 69.7565 130.688 69.9905V70.2765ZM135.148 70.4455C133.003 70.4455 131.677 69.0285 131.677 66.8835C131.677 64.8035 133.003 63.2565 135.096 63.2565C137.423 63.2565 138.398 65.0115 138.398 67.2215H133.029C133.068 68.4175 133.939 69.3145 135.174 69.3145C136.266 69.3145 136.877 68.7425 137.189 68.1835L138.346 68.6775C137.813 69.6785 136.747 70.4455 135.148 70.4455ZM133.042 66.1815H136.981C136.916 65.2455 136.292 64.3485 135.083 64.3485C133.926 64.3485 133.185 65.1805 133.042 66.1815ZM139.952 70.2765V64.6865C139.952 64.1275 139.952 63.8415 139.939 63.4385H141.239V63.8025C141.239 63.9975 141.239 64.2835 141.226 64.4785H141.252C141.655 63.6985 142.318 63.2955 143.254 63.2955C143.397 63.2955 143.527 63.3085 143.631 63.3345L143.592 64.6475C143.449 64.6085 143.306 64.5955 143.137 64.5955C141.837 64.5955 141.291 65.3495 141.291 66.8965V70.2765H139.952ZM144.878 70.2765V64.7905C144.878 64.4395 144.865 63.7765 144.865 63.4385H146.191V63.7245C146.191 63.8805 146.191 64.1795 146.178 64.3485H146.191C146.62 63.7115 147.335 63.2565 148.375 63.2565C149.87 63.2565 150.858 64.1795 150.858 65.9995V70.2765H149.48V66.8575C149.48 65.2715 149.181 64.4395 147.998 64.4395C146.789 64.4395 146.256 65.2715 146.256 66.8965V70.2765H144.878ZM154.788 70.3935C153.319 70.3935 152.331 69.6525 152.331 68.3915C152.331 67.0005 153.384 66.5975 154.905 66.2855L156.192 66.0385C156.751 65.9345 156.907 65.9475 156.907 65.5185C156.907 64.8295 156.374 64.3875 155.451 64.3875C154.45 64.3875 153.982 64.8815 153.878 65.6485L152.565 65.5445C152.708 64.1925 153.852 63.3215 155.451 63.3215C157.232 63.3215 158.246 64.1015 158.246 65.8825V69.9775C158.246 70.0945 158.259 70.2115 158.259 70.2765H156.998V70.0165C156.998 69.8735 156.998 69.7825 157.011 69.6915C157.011 69.6525 157.011 69.6005 157.024 69.5615H156.985C156.504 70.0815 155.815 70.3935 154.788 70.3935ZM155.1 69.4185C156.257 69.4185 156.933 68.6905 156.933 67.5335V67.2475C156.933 67.1565 156.946 67.0395 156.959 66.9485C156.764 67.0135 156.53 67.0395 156.283 67.0915L155.308 67.2865C154.229 67.4945 153.748 67.6505 153.748 68.3655C153.748 69.0415 154.268 69.4185 155.1 69.4185ZM162.959 70.2765H161.23C160.645 69.9515 160.502 69.3665 160.502 68.2095V64.5435H159.358V63.4385H160.502V61.5665H161.854V63.4385H163.258V64.5435H161.854V67.7675C161.854 69.3665 162.244 69.7565 162.959 69.9905V70.2765ZM164.518 70.2765V63.4385H165.896V70.2765H164.518ZM164.505 62.3855V60.7865H165.909V62.3855H164.505ZM170.948 70.4585C168.868 70.4585 167.464 69.0025 167.464 66.8575C167.464 64.7255 168.881 63.2435 170.974 63.2435C173.028 63.2435 174.458 64.7255 174.458 66.8575C174.458 68.9895 173.028 70.4585 170.948 70.4585ZM170.948 69.3015C172.261 69.3015 173.015 68.3135 173.015 66.8705C173.015 65.4665 172.261 64.4005 170.961 64.4005C169.635 64.4005 168.894 65.4405 168.894 66.8575C168.894 68.3135 169.648 69.3015 170.948 69.3015ZM176.032 70.2765V64.7905C176.032 64.4395 176.019 63.7765 176.019 63.4385H177.345V63.7245C177.345 63.8805 177.345 64.1795 177.332 64.3485H177.345C177.774 63.7115 178.489 63.2565 179.529 63.2565C181.024 63.2565 182.012 64.1795 182.012 65.9995V70.2765H180.634V66.8575C180.634 65.2715 180.335 64.4395 179.152 64.4395C177.943 64.4395 177.41 65.2715 177.41 66.8965V70.2765H176.032ZM185.943 70.3935C184.474 70.3935 183.486 69.6525 183.486 68.3915C183.486 67.0005 184.539 66.5975 186.06 66.2855L187.347 66.0385C187.906 65.9345 188.062 65.9475 188.062 65.5185C188.062 64.8295 187.529 64.3875 186.606 64.3875C185.605 64.3875 185.137 64.8815 185.033 65.6485L183.72 65.5445C183.863 64.1925 185.007 63.3215 186.606 63.3215C188.387 63.3215 189.401 64.1015 189.401 65.8825V69.9775C189.401 70.0945 189.414 70.2115 189.414 70.2765H188.153V70.0165C188.153 69.8735 188.153 69.7825 188.166 69.6915C188.166 69.6525 188.166 69.6005 188.179 69.5615H188.14C187.659 70.0815 186.97 70.3935 185.943 70.3935ZM186.255 69.4185C187.412 69.4185 188.088 68.6905 188.088 67.5335V67.2475C188.088 67.1565 188.101 67.0395 188.114 66.9485C187.919 67.0135 187.685 67.0395 187.438 67.0915L186.463 67.2865C185.384 67.4945 184.903 67.6505 184.903 68.3655C184.903 69.0415 185.423 69.4185 186.255 69.4185ZM191.343 70.2765V60.7865H192.721V70.2765H191.343ZM96.1695 84.2765V74.7865H99.4325C102.617 74.7865 104.125 76.5805 104.125 79.4535C104.125 82.1575 102.799 84.2765 99.5105 84.2765H96.1695ZM97.6255 83.0415H99.2635C101.343 83.0415 102.63 82.0015 102.63 79.5705C102.63 78.1795 102.279 77.1655 101.395 76.5935C100.654 76.1385 99.7835 76.0345 98.3665 76.0345H97.6255V83.0415ZM105.776 84.2765V77.4385H107.154V84.2765H105.776ZM105.763 76.3855V74.7865H107.167V76.3855H105.763ZM111.518 84.4325C109.971 84.4325 108.892 83.8215 108.593 82.5215L109.815 82.1835C110.075 82.9115 110.621 83.3665 111.596 83.3665C112.337 83.3665 112.922 83.0025 112.922 82.4305C112.922 81.8975 112.48 81.6765 111.648 81.4815L110.868 81.2995C109.672 81.0265 108.84 80.5065 108.84 79.3235C108.84 78.0105 110.023 77.2565 111.479 77.2565C112.87 77.2565 113.871 77.8805 114.144 79.0245L112.948 79.3625C112.753 78.7255 112.259 78.3615 111.44 78.3615C110.712 78.3615 110.231 78.7125 110.231 79.1935C110.231 79.7525 110.595 79.9345 111.44 80.1295L112.272 80.3245C113.533 80.6235 114.313 81.1305 114.313 82.2875C114.313 83.6915 113.13 84.4325 111.518 84.4325ZM115.831 86.7205V78.2185C115.831 77.9585 115.818 77.6855 115.818 77.4385H117.157V77.7505C117.157 77.9065 117.144 78.1665 117.144 78.3615H117.17C117.625 77.7245 118.392 77.2695 119.419 77.2695C121.252 77.2695 122.578 78.7255 122.578 80.8575C122.578 83.0155 121.252 84.4325 119.419 84.4325C118.392 84.4325 117.664 84.0685 117.183 83.4055H117.17C117.209 83.8345 117.196 84.2765 117.196 84.6925V86.7205H115.831ZM119.172 83.3015C120.407 83.3015 121.148 82.2875 121.148 80.8965C121.148 79.4795 120.407 78.4525 119.159 78.4525C117.924 78.4525 117.144 79.4275 117.144 80.8835C117.144 82.3135 117.924 83.3015 119.172 83.3015ZM126.538 84.4325C125.082 84.4325 124.068 83.6655 124.068 81.8585V77.4385H125.446V81.5075C125.446 82.7035 125.94 83.3015 126.928 83.3015C128.085 83.3015 128.631 82.4045 128.631 81.0655V77.4385H130.009V83.2625C130.009 83.6265 130.009 83.8995 130.022 84.2765H128.696V83.9775C128.696 83.8345 128.696 83.5615 128.709 83.4055H128.683C128.228 84.0425 127.526 84.4325 126.538 84.4325ZM134.915 84.2765H133.186C132.601 83.9515 132.458 83.3665 132.458 82.2095V78.5435H131.314V77.4385H132.458V75.5665H133.81V77.4385H135.214V78.5435H133.81V81.7675C133.81 83.3665 134.2 83.7565 134.915 83.9905V84.2765ZM139.375 84.4455C137.23 84.4455 135.904 83.0285 135.904 80.8835C135.904 78.8035 137.23 77.2565 139.323 77.2565C141.65 77.2565 142.625 79.0115 142.625 81.2215H137.256C137.295 82.4175 138.166 83.3145 139.401 83.3145C140.493 83.3145 141.104 82.7425 141.416 82.1835L142.573 82.6775C142.04 83.6785 140.974 84.4455 139.375 84.4455ZM137.269 80.1815H141.208C141.143 79.2455 140.519 78.3485 139.31 78.3485C138.153 78.3485 137.412 79.1805 137.269 80.1815ZM150.344 84.4585C148.472 84.4585 147.042 83.5485 146.73 81.8975L148.121 81.5595C148.342 82.6385 149.174 83.2495 150.357 83.2495C151.54 83.2495 152.346 82.6645 152.346 81.7285C152.346 80.9485 151.761 80.5845 150.669 80.2595L149.889 80.0255C148.134 79.5055 147.068 78.8815 147.068 77.3085C147.068 75.6835 148.459 74.6045 150.396 74.6045C152.125 74.6045 153.295 75.4495 153.646 76.8925L152.32 77.2435C152.073 76.3465 151.397 75.8525 150.344 75.8525C149.304 75.8525 148.589 76.3595 148.589 77.1915C148.589 78.0105 149.122 78.2835 150.409 78.6995L151.332 78.9855C152.788 79.4405 153.854 79.9865 153.854 81.5985C153.854 83.4055 152.359 84.4585 150.344 84.4585ZM158.418 84.4455C156.273 84.4455 154.947 83.0285 154.947 80.8835C154.947 78.8035 156.273 77.2565 158.366 77.2565C160.693 77.2565 161.668 79.0115 161.668 81.2215H156.299C156.338 82.4175 157.209 83.3145 158.444 83.3145C159.536 83.3145 160.147 82.7425 160.459 82.1835L161.616 82.6775C161.083 83.6785 160.017 84.4455 158.418 84.4455ZM156.312 80.1815H160.251C160.186 79.2455 159.562 78.3485 158.353 78.3485C157.196 78.3485 156.455 79.1805 156.312 80.1815ZM165.968 84.2765H164.239C163.654 83.9515 163.511 83.3665 163.511 82.2095V78.5435H162.367V77.4385H163.511V75.5665H164.863V77.4385H166.267V78.5435H164.863V81.7675C164.863 83.3665 165.253 83.7565 165.968 83.9905V84.2765ZM170.373 84.2765H168.644C168.059 83.9515 167.916 83.3665 167.916 82.2095V78.5435H166.772V77.4385H167.916V75.5665H169.268V77.4385H170.672V78.5435H169.268V81.7675C169.268 83.3665 169.658 83.7565 170.373 83.9905V84.2765ZM171.932 84.2765V74.7865H173.31V84.2765H171.932ZM178.362 84.4455C176.217 84.4455 174.891 83.0285 174.891 80.8835C174.891 78.8035 176.217 77.2565 178.31 77.2565C180.637 77.2565 181.612 79.0115 181.612 81.2215H176.243C176.282 82.4175 177.153 83.3145 178.388 83.3145C179.48 83.3145 180.091 82.7425 180.403 82.1835L181.56 82.6775C181.027 83.6785 179.961 84.4455 178.362 84.4455ZM176.256 80.1815H180.195C180.13 79.2455 179.506 78.3485 178.297 78.3485C177.14 78.3485 176.399 79.1805 176.256 80.1815ZM183.167 84.2765V78.6215C183.167 78.1405 183.167 77.8935 183.154 77.4385H184.467V77.8415C184.467 77.9845 184.467 78.2185 184.454 78.3615H184.48C184.831 77.7375 185.572 77.2565 186.56 77.2565C187.509 77.2565 188.224 77.6855 188.627 78.5045C189.056 77.7765 189.849 77.2565 190.941 77.2565C192.553 77.2565 193.385 78.2835 193.385 80.1165V84.2765H192.007V80.4285C192.007 79.1805 191.63 78.4395 190.59 78.4395C189.342 78.4395 188.965 79.4795 188.965 80.8055V84.2765H187.587V80.4545C187.587 79.1675 187.184 78.4395 186.183 78.4395C184.974 78.4395 184.545 79.4275 184.545 80.8835V84.2765H183.167ZM198.345 84.4455C196.2 84.4455 194.874 83.0285 194.874 80.8835C194.874 78.8035 196.2 77.2565 198.293 77.2565C200.62 77.2565 201.595 79.0115 201.595 81.2215H196.226C196.265 82.4175 197.136 83.3145 198.371 83.3145C199.463 83.3145 200.074 82.7425 200.386 82.1835L201.543 82.6775C201.01 83.6785 199.944 84.4455 198.345 84.4455ZM196.239 80.1815H200.178C200.113 79.2455 199.489 78.3485 198.28 78.3485C197.123 78.3485 196.382 79.1805 196.239 80.1815ZM203.15 84.2765V78.7905C203.15 78.4395 203.137 77.7765 203.137 77.4385H204.463V77.7245C204.463 77.8805 204.463 78.1795 204.45 78.3485H204.463C204.892 77.7115 205.607 77.2565 206.647 77.2565C208.142 77.2565 209.13 78.1795 209.13 79.9995V84.2765H207.752V80.8575C207.752 79.2715 207.453 78.4395 206.27 78.4395C205.061 78.4395 204.528 79.2715 204.528 80.8965V84.2765H203.15ZM213.868 84.2765H212.139C211.554 83.9515 211.411 83.3665 211.411 82.2095V78.5435H210.267V77.4385H211.411V75.5665H212.763V77.4385H214.167V78.5435H212.763V81.7675C212.763 83.3665 213.153 83.7565 213.868 83.9905V84.2765Z" fill="#182B3A"/>
<path d="M49.299 83.3704C47.0952 82.8188 45.1095 82.1122 45.1095 82.1122C45.423 82.0575 45.1368 82.0939 47.1588 81.7156C49.1627 81.3418 49.6217 81.2643 51.3711 81.2369C54.4837 81.1913 54.202 82.5908 54.202 82.5908C54.202 83.5026 53.4886 84.1317 53.4886 84.1317C53.4886 84.1317 51.9027 84.0177 49.299 83.3704ZM22.4033 78.9485C19.1589 78.8527 19.2816 77.4715 19.2816 77.4715C19.2816 76.5597 20.0449 75.999 20.0449 75.999C20.0449 75.999 21.6944 76.0811 24.2936 76.6828C26.5019 77.1979 30.1235 78.4151 30.1235 78.4151C29.8145 78.4744 28.7012 78.6841 26.3156 78.8482C24.9842 78.9348 24.4526 78.9712 23.7528 78.9712C23.3939 78.9712 22.9849 78.9713 22.4033 78.9485ZM58.5915 77.7131C57.6191 77.5717 56.3967 77.3119 54.9836 76.9791C51.5574 76.1859 48.8401 75.3015 48.8401 75.3015C49.2945 75.2377 48.9855 75.1648 51.9436 74.8548C54.82 74.5539 55.3153 74.3169 57.8644 74.3807C62.7856 74.5038 62.4947 76.1039 62.4947 76.1039C62.4947 77.1615 61.3179 77.9045 61.3179 77.9045C61.3179 77.9045 61.2406 77.9045 61.077 77.9045C60.6862 77.9045 59.8365 77.8817 58.6006 77.7039M15.4192 69.7309C12.0157 69.4026 12.2157 68.0533 12.2157 68.0533C12.2157 66.9273 13.279 66.4167 13.279 66.4167C13.279 66.4167 13.279 66.1979 17.3776 66.8498C20.4312 67.3376 26.5337 69.2978 26.5337 69.2978C26.2202 69.3662 22.4078 69.7947 20.0222 69.8539C19.0953 69.8767 18.5909 69.8995 18.0865 69.8995C17.4549 69.8995 16.8324 69.8585 15.4192 69.7263M58.5006 67.5746C52.6525 65.8697 52.2435 65.7511 52.2435 65.7511C52.2435 65.7511 58.4779 64.8257 62.4175 64.6981C66.3526 64.575 67.225 64.7482 68.1475 65.1995C69.0653 65.6463 69.7333 66.3255 69.2244 67.4242C68.72 68.5274 68.1247 68.8009 67.7748 68.9741C67.7748 68.9741 67.5386 69.0015 67.0842 69.0015C65.8073 69.0015 62.8128 68.8328 58.5006 67.5746ZM10.6298 58.8721C7.13098 58.398 7.1537 56.8481 7.1537 56.8481C7.1537 55.2936 8.43964 54.8332 8.43964 54.8332C8.43964 54.8332 8.15337 54.6143 12.3838 55.1887C17.005 55.8133 25.3341 58.398 25.3341 58.398C25.0206 58.4527 21.2037 58.7673 18.8226 58.9451C17.5412 59.0362 16.1599 59.1365 14.6785 59.1365C13.4017 59.1365 12.0521 59.0636 10.6253 58.8721M63.7852 56.9074C59.5048 55.8543 54.7064 54.1311 54.7064 54.1311C55.2198 54.0308 57.2692 53.6297 60.6045 53.2695C63.9306 52.9003 64.7849 52.8274 67.6158 52.8137C73.9001 52.7772 73.5866 54.9517 73.5866 54.9517C73.7275 56.7569 71.51 58.0288 71.51 58.0288C71.51 58.0288 68.1066 57.965 63.7807 56.9074M9.11669 46.737C5.49969 46.4635 5.20433 44.5124 5.20433 44.5124C5.20433 42.5613 7.18551 41.5584 7.18551 41.5584C7.18551 41.5584 6.84016 41.3076 11.8294 42.0051C16.8233 42.7117 26.4928 46.0577 26.4928 46.0577C26.1202 46.1352 21.8444 46.5774 19.0362 46.8099C17.773 46.9102 16.3689 46.9604 14.8739 46.9604C13.0563 46.9604 11.0979 46.8829 9.11215 46.7324M64.7486 44.371C60.8862 43.473 55.0199 41.5401 55.0199 41.5401C57.2056 41.1253 64.9939 40.3913 65.8255 40.3913C69.1017 40.3913 73.4639 40.1224 74.4681 41.841C75.0497 42.8348 74.4363 43.9471 73.7138 44.6354C73.2322 45.1004 72.6914 45.3876 72.6914 45.3876C72.5142 45.4059 72.3188 45.4059 72.0962 45.4059C70.6148 45.4059 68.0884 45.146 64.7486 44.371ZM6.71748 32.5504C5.75415 30.7498 8.34422 29.177 8.34422 29.177C9.58018 29.2409 11.2751 29.2864 16.4916 30.4489C20.1994 31.2831 26.82 33.5534 26.82 33.5534C24.5571 33.9317 19.2134 34.3329 15.5237 34.4696C15.2011 34.4788 14.8421 34.4879 14.4468 34.4879C11.7477 34.4879 7.58083 34.1551 6.71748 32.5504ZM64.3578 31.5156C60.8998 30.8364 55.5425 29.2545 55.5425 29.2545C59.6729 28.6209 62.6492 28.5753 65.2211 28.3428C69.2925 27.9599 71.7735 28.5935 72.4824 29.5873C73.014 30.3258 72.546 31.1829 72.0416 31.7299C71.6736 32.1311 71.2692 32.3271 71.2692 32.3271C71.1101 32.3362 70.9329 32.3407 70.7421 32.3407C69.4516 32.3407 67.3841 32.1128 64.3532 31.5202M14.7967 22.722C13.1972 22.5533 11.7022 22.1111 11.0979 21.245C10.1527 19.8956 12.2702 18.3685 12.2702 18.3685C13.3244 18.4277 15.0239 18.414 19.736 19.4443C22.9077 20.1327 28.6785 21.947 28.6785 21.947C26.7428 22.2707 21.9489 22.6262 18.9862 22.7493C18.4137 22.7676 17.6185 22.8132 16.7597 22.8132C16.1235 22.8132 15.451 22.7949 14.7967 22.7265M60.9407 20.2421C58.2734 19.7953 54.0339 18.487 54.0339 18.487C55.597 18.1816 59.3458 17.7667 61.6359 17.7166C63.9352 17.6664 66.707 17.7804 67.4113 18.7149C68.1929 19.7725 66.3526 20.9168 66.3526 20.9168C66.2299 20.9304 66.089 20.935 65.9391 20.935C64.9485 20.935 63.3717 20.6569 60.9407 20.2421ZM17.9956 11.8359C17.3595 10.6962 18.7363 9.62496 18.7363 9.62496C19.536 9.67054 21.8035 9.77539 24.4662 10.3543C26.8791 10.874 31.3594 12.3784 31.3594 12.3784C29.8781 12.6793 26.0612 12.9254 23.8801 13.0394C23.512 13.0576 23.1212 13.0667 22.7213 13.0667C20.7356 13.0667 18.5227 12.7887 17.9956 11.8359ZM55.0517 10.8239C53.1841 10.3771 50.0261 9.37879 50.0261 9.37879C51.1621 9.07336 53.8703 8.69499 55.5379 8.54911C57.1965 8.40324 59.2322 8.47617 59.732 9.42893C60.2318 10.3726 59.1549 11.3937 59.1549 11.3937C59.0413 11.4119 58.905 11.4211 58.7505 11.4211C57.9417 11.4211 56.5876 11.1931 55.0472 10.8239M26.6292 5.37629C26.1975 4.46 27.1245 3.46621 27.1245 3.46621C27.6516 3.48445 29.0375 3.74885 30.6279 4.10898C32.2183 4.46456 34.9446 5.43099 34.9446 5.43099C33.9677 5.73186 31.6457 6.09656 30.2189 6.23332C29.8781 6.26978 29.5146 6.29258 29.1602 6.29258C28.0378 6.29258 26.9609 6.07832 26.6292 5.37629ZM49.5126 1.32364C48.2403 1.70201 44.9005 2.73683 44.1144 2.96476C43.3283 3.19269 41.8378 3.644 40.9018 3.90384C39.9748 4.16369 38.1754 4.63779 38.0982 4.66058C38.0982 4.66058 35.9625 3.92663 35.3718 3.76252C34.7765 3.59841 33.2088 3.11975 31.6094 2.9055C30.0144 2.6958 28.6694 2.65933 27.5516 2.79153C26.4383 2.93285 24.7298 3.22004 24.0391 3.6987C23.3439 4.1728 22.9894 4.7244 22.8758 5.44923C22.8758 5.44923 22.8213 6.00538 23.303 6.42022C23.7846 6.82594 24.748 7.07667 25.784 7.06299C26.82 7.04476 28.524 6.95358 29.6873 6.78947C30.8551 6.6208 32.9953 6.26523 33.5814 6.15126C34.1631 6.03729 35.6898 5.70451 35.6898 5.70451C35.6898 5.70451 38.7025 6.89432 39.475 7.21799C40.8291 7.79694 43.1192 8.77249 43.4919 8.92292C43.8917 9.08703 45.573 9.79363 45.573 9.79363L35.6898 11.7538C35.6898 11.7538 31.2595 10.2541 28.3195 9.61584C25.3887 8.97307 22.1215 8.53088 18.8317 9.00042C15.5419 9.47452 14.215 10.2768 13.7334 11.4803C13.2472 12.6838 14.6422 13.9147 18.5545 13.983C18.5545 13.983 22.4305 14.1152 30.8233 12.9528L32.3637 12.7294C32.3637 12.7294 38.5934 14.9768 40.202 15.6059C41.8469 16.2578 48.4448 18.838 48.4448 18.838L33.845 21.2586C33.845 21.2586 29.56 19.8363 25.007 18.7058C20.4494 17.5844 16.3234 17.206 13.4471 17.5661C10.5571 17.9172 6.79927 18.5599 6.2858 20.862C5.76779 23.1733 9.92552 23.734 11.6341 23.7568C13.3426 23.775 19.8677 23.5836 23.6665 23.1778C27.4653 22.763 30.1144 22.4029 30.1144 22.4029C30.1144 22.4029 38.8388 25.5119 40.9336 26.3051C43.0511 27.1074 49.499 29.6329 49.499 29.6329L32.5409 32.7829C32.5409 32.7829 25.5159 30.2711 21.2673 29.332C17.0187 28.3929 13.5925 28.0966 10.3754 28.3018C7.16733 28.5115 2.6279 29.332 1.40103 31.8484C1.40103 31.8484 0.505865 33.9089 3.4231 34.9118C6.34033 35.9056 15.0738 35.3996 15.3329 35.3814C15.5873 35.3631 25.2114 34.5335 27.7515 34.0913C27.8015 34.0822 28.0832 34.0457 28.1287 34.0411C28.1287 34.0411 32.5409 35.6686 34.6811 36.4846C37.4075 37.5467 43.8008 40.2455 44.7642 40.6147C45.782 41.0113 48.3584 42.0507 48.3584 42.0507L32.1092 45.2144C32.1092 45.2144 22.2397 41.5401 15.092 40.7515C7.93072 39.9446 0.365002 41.7453 0.0196598 44.6354C-0.321138 47.5256 3.82296 47.8994 8.23971 48.0134C12.6564 48.1274 23.5665 47.1883 27.5334 46.4361L48.0086 54.6143L30.537 57.7325C30.537 57.7325 18.4909 53.7892 12.6883 53.8622C6.89015 53.9442 2.85056 54.9517 2.46886 57.3997C2.46886 57.3997 2.30073 60.2488 9.17122 60.0574C16.0417 59.8705 21.1491 59.834 26.3247 58.8904L26.7382 58.8174C26.7382 58.8174 34.1949 61.3703 38.1027 62.8746C42.0014 64.379 46.4863 66.0976 46.4863 66.0976L31.0913 68.6869C31.0913 68.6869 19.9041 64.6024 13.588 65.7648C13.588 65.7648 8.33967 66.1386 8.02614 68.6869C7.71715 71.2443 18.1774 70.6745 21.3536 70.3326C24.5299 69.9953 27.5652 69.6579 27.5652 69.6579L43.3101 75.5523L33.4724 77.6173C33.4724 77.6173 25.5295 74.6496 21.0083 75.2879C21.0083 75.2879 15.5555 75.5158 15.6555 78.178C15.6555 78.178 15.5373 80.0015 21.5944 79.7189C27.6516 79.4408 29.9826 78.7068 30.9323 78.7251C30.9323 78.7251 34.3676 80.0015 35.9216 80.626C37.4756 81.2415 40.9609 82.5726 40.9609 82.5726C40.9609 82.5726 34.5402 84.2274 33.0362 84.6559C31.5367 85.089 28.1514 85.9141 28.2059 86.1238C28.2559 86.3289 30.2098 85.9916 30.9959 85.7864C31.7911 85.5813 41.3744 82.8826 41.7515 82.8598C41.7515 82.8598 47.536 84.9796 50.9849 84.861C54.4337 84.7516 56.1468 84.2456 56.8375 83.6803C57.5282 83.1196 57.8917 82.4449 57.8235 81.711C57.7554 80.9771 56.2377 80.3252 53.893 80.4893C51.5438 80.6625 49.4899 80.813 44.3461 81.825L34.7129 78.0778L44.3461 75.9534C44.3461 75.9534 48.4539 77.2298 50.6395 77.7222C52.8388 78.2008 56.5421 78.994 59.5457 78.6749C62.5538 78.3558 65.8846 78.0003 66.5571 75.5614C66.5571 75.5614 67.3523 72.9584 58.8232 73.6878C50.2987 74.4172 47.8086 74.9414 47.8086 74.9414L33.1725 69.4072L47.3815 66.5763C47.3815 66.5763 55.5061 69.1291 59.1004 69.5576C62.6901 69.9816 65.7073 70.3326 70.1423 69.1519C74.5817 67.9758 74.0546 65.7785 73.9183 65.4776C73.782 65.1768 73.2276 64.2513 70.5376 63.873C67.8475 63.4992 63.7262 63.7727 61.6359 63.9961C59.5412 64.224 51.1848 65.2725 51.003 65.3454C51.003 65.3454 35.2582 59.214 31.8547 58.1701L49.2309 55.0383C49.2309 55.0383 57.1011 57.8145 61.8222 58.5667C66.5389 59.3189 69.4607 59.214 73.8138 58.2886C78.1624 57.3632 78.7849 55.0657 78.7122 54.008C78.644 52.9641 76.7628 51.4096 71.1192 51.7378C65.4801 52.0615 59.523 52.49 53.4886 53.6616L33.2815 45.6338L50.1261 42.6296L54.3838 43.9334C62.622 46.6367 69.088 46.5364 69.088 46.5364C74.9316 46.2902 78.1306 45.0366 79.5801 42.7846C81.0342 40.5327 77.3263 39.5845 77.3263 39.5845C73.8501 38.8779 65.93 39.5343 63.4035 39.7622C60.8725 39.9856 53.6476 41.0888 53.6476 41.0888C51.7392 40.4962 46.4727 38.1485 41.5334 36.1746C37.3938 34.5426 33.7178 33.2069 33.7178 33.2069L50.6077 30.0295C50.6077 30.0295 55.3698 31.4792 60.4545 32.555C65.5392 33.6308 69.9151 33.5807 73.941 32.4091C77.9761 31.233 77.3263 29.2317 77.3263 29.2317C76.3539 26.7974 70.0287 27.2806 66.2799 27.5268C62.5266 27.7775 54.3383 28.826 54.3383 28.826C54.3383 28.826 50.4441 27.4265 48.3721 26.6287C46.3046 25.8264 35.14 21.678 35.14 21.678L49.4808 19.1708C56.0832 21.0717 59.8592 21.947 64.5759 21.7008C69.2925 21.4501 71.0874 19.9503 71.5691 18.9748C72.0507 17.9992 71.1101 17.3473 69.4107 17.0009C67.7021 16.6498 66.139 16.8504 63.1945 17.0009C60.25 17.1513 52.8615 18.1496 52.8615 18.1496C52.8615 18.1496 48.9037 16.7228 47.8677 16.2988C46.8362 15.8749 36.6168 12.0684 36.6168 12.0684C38.2708 11.7675 46.4227 10.058 46.4227 10.058C46.4227 10.058 51.0485 11.7903 55.5061 12.0957C59.9774 12.3921 62.1858 11.1384 62.1858 11.1384C64.1851 9.63863 63.3354 8.81352 63.3354 8.81352C62.413 7.5143 58.9141 7.83796 56.3831 8.03399C53.8567 8.23912 49.1582 9.08703 49.1582 9.08703C48.6311 8.76337 38.9115 4.96145 38.9115 4.96145C38.9115 4.96145 41.3471 4.3278 41.697 4.23662C42.0469 4.14089 44.9596 3.32489 45.991 3.0149C47.0271 2.69124 47.5133 2.57727 48.7992 2.16699C50.0897 1.75671 50.0352 1.83421 50.894 1.55613C51.7528 1.27806 51.8255 1.22335 51.8573 1.15041C51.8891 1.07292 51.4438 1.01821 51.3438 1.01365C51.3166 1.01365 51.2711 1.00909 51.1984 1.00909C50.9667 1.00909 50.4668 1.05012 49.5126 1.33276" fill="#182B3A"/>
</svg>
